<svg xmlns="http://www.w3.org/2000/svg" xmlns:xlink="http://www.w3.org/1999/xlink" width="600" height="600" version="1.1" viewBox="0 0 600 600"><title>Group 2 Copy 25</title><desc>Created with Sketch.</desc><defs><linearGradient id="linearGradient-1" x1="50%" x2="50%" y1="0%" y2="100%"><stop offset="0%" stop-color="#FFF" stop-opacity=".2"/><stop offset="100%" stop-color="#000" stop-opacity=".139"/></linearGradient><linearGradient id="linearGradient-2" x1="50%" x2="50%" y1="0%" y2="100%"><stop offset="0%" stop-color="#FFF"/><stop offset="35.243%" stop-color="#F6F6F6"/><stop offset="100%" stop-color="#E5E5E5"/></linearGradient><path id="path-3" d="M286.8,104.5 C286.1,101.6 284.8,99.5 283.3,97.7 L199.6,6 C197.7,3.9 195.5,2.9 193,1.6 C190.1,0.1 186.9,0 183.6,0 L23.7,0 C11.3,0 -2.84217094e-14,9.6 -2.84217094e-14,22.9 L-2.84217094e-14,358.1 C-2.84217094e-14,371.5 11.3,384 23.7,384 L266.8,384 C279.2,384 288,371.5 288,358.1 L288,114 C288,110.4 287.6,107.8 286.8,104.5 L286.8,104.5 Z M193,46.6 L251,110.1 L193,110.1 L193,46.6 L193,46.6 Z M32,352.1 L32,32.1 L161,32.1 L161,113.8 C161,128.6 174.4,142.1 189.1,142.1 L256,142.1 L256,352.1 L32,352.1 L32,352.1 Z"/><filter id="filter-4" width="200%" height="200%" x="-50%" y="-50%" filterUnits="objectBoundingBox"><feMorphology in="SourceAlpha" operator="dilate" radius="1" result="shadowSpreadOuter1"/><feOffset dx="0" dy="2" in="shadowSpreadOuter1" result="shadowOffsetOuter1"/><feColorMatrix in="shadowOffsetOuter1" type="matrix" values="0 0 0 0 0 0 0 0 0 0 0 0 0 0 0 0 0 0 0.08 0"/></filter><rect id="path-5" width="180" height="15" x="50" y="281"/><filter id="filter-6" width="200%" height="200%" x="-50%" y="-50%" filterUnits="objectBoundingBox"><feMorphology in="SourceAlpha" operator="dilate" radius="1" result="shadowSpreadOuter1"/><feOffset dx="0" dy="2" in="shadowSpreadOuter1" result="shadowOffsetOuter1"/><feColorMatrix in="shadowOffsetOuter1" type="matrix" values="0 0 0 0 0 0 0 0 0 0 0 0 0 0 0 0 0 0 0.08 0"/></filter><rect id="path-7" width="180" height="15" x="50" y="250"/><filter id="filter-8" width="200%" height="200%" x="-50%" y="-50%" filterUnits="objectBoundingBox"><feMorphology in="SourceAlpha" operator="dilate" radius="1" result="shadowSpreadOuter1"/><feOffset dx="0" dy="2" in="shadowSpreadOuter1" result="shadowOffsetOuter1"/><feColorMatrix in="shadowOffsetOuter1" type="matrix" values="0 0 0 0 0 0 0 0 0 0 0 0 0 0 0 0 0 0 0.08 0"/></filter><rect id="path-9" width="180" height="15" x="50" y="221"/><filter id="filter-10" width="200%" height="200%" x="-50%" y="-50%" filterUnits="objectBoundingBox"><feMorphology in="SourceAlpha" operator="dilate" radius="1" result="shadowSpreadOuter1"/><feOffset dx="0" dy="2" in="shadowSpreadOuter1" result="shadowOffsetOuter1"/><feColorMatrix in="shadowOffsetOuter1" type="matrix" values="0 0 0 0 0 0 0 0 0 0 0 0 0 0 0 0 0 0 0.08 0"/></filter><rect id="path-11" width="180" height="15" x="50" y="190"/><filter id="filter-12" width="200%" height="200%" x="-50%" y="-50%" filterUnits="objectBoundingBox"><feMorphology in="SourceAlpha" operator="dilate" radius="1" result="shadowSpreadOuter1"/><feOffset dx="0" dy="2" in="shadowSpreadOuter1" result="shadowOffsetOuter1"/><feColorMatrix in="shadowOffsetOuter1" type="matrix" values="0 0 0 0 0 0 0 0 0 0 0 0 0 0 0 0 0 0 0.08 0"/></filter><rect id="path-13" width="90" height="15" x="50" y="311"/><filter id="filter-14" width="200%" height="200%" x="-50%" y="-50%" filterUnits="objectBoundingBox"><feMorphology in="SourceAlpha" operator="dilate" radius="1" result="shadowSpreadOuter1"/><feOffset dx="0" dy="2" in="shadowSpreadOuter1" result="shadowOffsetOuter1"/><feColorMatrix in="shadowOffsetOuter1" type="matrix" values="0 0 0 0 0 0 0 0 0 0 0 0 0 0 0 0 0 0 0.08 0"/></filter><rect id="path-15" width="90" height="106" x="50" y="60"/><filter id="filter-16" width="200%" height="200%" x="-50%" y="-50%" filterUnits="objectBoundingBox"><feMorphology in="SourceAlpha" operator="dilate" radius="1" result="shadowSpreadOuter1"/><feOffset dx="0" dy="2" in="shadowSpreadOuter1" result="shadowOffsetOuter1"/><feColorMatrix in="shadowOffsetOuter1" type="matrix" values="0 0 0 0 0 0 0 0 0 0 0 0 0 0 0 0 0 0 0.08 0"/></filter></defs><g id="Page-1" fill="none" fill-rule="evenodd" stroke="none" stroke-width="1"><g id="Group-2-Copy-25"><path id="path" fill="#2BAF92" d="M552.268958,552.268958 C600,504.537813 600,431.458333 600,300 C600,168.541667 600,95.4621875 552.268958,47.7310417 C504.537813,0 431.458333,0 300,0 C168.541667,0 95.4621875,0 47.7310417,47.7310417 C0,95.4621875 0,168.541667 0,300 C0,431.458333 0,504.537813 47.7310417,552.268958 C95.4621875,600 168.541667,600 300,600 C431.458333,600 504.537813,600 552.268958,552.268958 L552.268958,552.268958 Z"/><path id="path-copy" fill="url(#linearGradient-1)" d="M552.268958,552.268958 C600,504.537813 600,431.458333 600,300 C600,168.541667 600,95.4621875 552.268958,47.7310417 C504.537813,0 431.458333,0 300,0 C168.541667,0 95.4621875,0 47.7310417,47.7310417 C0,95.4621875 0,168.541667 0,300 C0,431.458333 0,504.537813 47.7310417,552.268958 C95.4621875,600 168.541667,600 300,600 C431.458333,600 504.537813,600 552.268958,552.268958 L552.268958,552.268958 Z"/><g id="document" transform="translate(156.000000, 105.000000)"><g id="Layer_1"><g id="Shape"><use fill="#000" fill-opacity="1" filter="url(#filter-4)" xlink:href="#path-3"/><use fill="url(#linearGradient-2)" fill-rule="evenodd" xlink:href="#path-3"/></g><g id="Rectangle-path" opacity=".5"><use fill="#000" fill-opacity="1" filter="url(#filter-6)" xlink:href="#path-5"/><use fill="url(#linearGradient-2)" fill-rule="evenodd" xlink:href="#path-5"/></g><g id="Rectangle-path-Copy" opacity=".5"><use fill="#000" fill-opacity="1" filter="url(#filter-8)" xlink:href="#path-7"/><use fill="url(#linearGradient-2)" fill-rule="evenodd" xlink:href="#path-7"/></g><g id="Rectangle-path-Copy-3" opacity=".5"><use fill="#000" fill-opacity="1" filter="url(#filter-10)" xlink:href="#path-9"/><use fill="url(#linearGradient-2)" fill-rule="evenodd" xlink:href="#path-9"/></g><g id="Rectangle-path-Copy-2" opacity=".5"><use fill="#000" fill-opacity="1" filter="url(#filter-12)" xlink:href="#path-11"/><use fill="url(#linearGradient-2)" fill-rule="evenodd" xlink:href="#path-11"/></g><g id="Rectangle-path" opacity=".5"><use fill="#000" fill-opacity="1" filter="url(#filter-14)" xlink:href="#path-13"/><use fill="url(#linearGradient-2)" fill-rule="evenodd" xlink:href="#path-13"/></g><g id="Rectangle-path" opacity=".5"><use fill="#000" fill-opacity="1" filter="url(#filter-16)" xlink:href="#path-15"/><use fill="url(#linearGradient-2)" fill-rule="evenodd" xlink:href="#path-15"/></g></g></g></g></g></svg>