<svg xmlns="http://www.w3.org/2000/svg" xmlns:xlink="http://www.w3.org/1999/xlink" width="600" height="600" version="1.1" viewBox="0 0 600 600"><title>Group 2 Copy 21</title><desc>Created with Sketch.</desc><defs><linearGradient id="linearGradient-1" x1="50%" x2="50%" y1="0%" y2="100%"><stop offset="0%" stop-color="#FFF" stop-opacity=".2"/><stop offset="100%" stop-color="#000" stop-opacity=".139"/></linearGradient><linearGradient id="linearGradient-2" x1="50%" x2="50%" y1="0%" y2="100%"><stop offset="0%" stop-color="#FFF"/><stop offset="35.243%" stop-color="#F6F6F6"/><stop offset="100%" stop-color="#E5E5E5"/></linearGradient><path id="path-3" d="M268.761399,0 L268.761399,31.5025907 L111.248446,31.5025907 L111.248446,0 L63.9945596,0 L63.9945596,31.5025907 L40.357772,31.5025907 C18.697772,31.5025907 0.979533679,49.220829 0.979533679,70.880829 L0.979533679,338.65285 C0.979533679,360.31285 18.697772,378.031088 40.357772,378.031088 L339.642228,378.031088 C361.302228,378.031088 379.020466,360.31285 379.020466,338.65285 L379.020466,70.880829 C379.020466,49.220829 361.302228,31.5025907 339.642228,31.5025907 L316.015285,31.5025907 L316.015285,0 L268.761399,0 L268.761399,0 Z M339.642228,338.65285 L40.357772,338.65285 L40.357772,129.948187 L339.642228,129.948187 L339.642228,338.65285 L339.642228,338.65285 Z"/><filter id="filter-4" width="200%" height="200%" x="-50%" y="-50%" filterUnits="objectBoundingBox"><feMorphology in="SourceAlpha" operator="dilate" radius="1" result="shadowSpreadOuter1"/><feOffset dx="0" dy="2" in="shadowSpreadOuter1" result="shadowOffsetOuter1"/><feColorMatrix in="shadowOffsetOuter1" type="matrix" values="0 0 0 0 0 0 0 0 0 0 0 0 0 0 0 0 0 0 0.08 0"/></filter><polygon id="path-5" points="300.264 204.767 205.756 204.767 205.756 299.275 300.264 299.275"/><filter id="filter-6" width="200%" height="200%" x="-50%" y="-50%" filterUnits="objectBoundingBox"><feMorphology in="SourceAlpha" operator="dilate" radius="1" result="shadowSpreadOuter1"/><feOffset dx="0" dy="2" in="shadowSpreadOuter1" result="shadowOffsetOuter1"/><feColorMatrix in="shadowOffsetOuter1" type="matrix" values="0 0 0 0 0 0 0 0 0 0 0 0 0 0 0 0 0 0 0.08 0"/></filter></defs><g id="Page-1" fill="none" fill-rule="evenodd" stroke="none" stroke-width="1"><g id="Group-2-Copy-21"><path id="path" fill="#2BAF92" d="M552.268958,552.268958 C600,504.537813 600,431.458333 600,300 C600,168.541667 600,95.4621875 552.268958,47.7310417 C504.537813,0 431.458333,0 300,0 C168.541667,0 95.4621875,0 47.7310417,47.7310417 C0,95.4621875 0,168.541667 0,300 C0,431.458333 0,504.537813 47.7310417,552.268958 C95.4621875,600 168.541667,600 300,600 C431.458333,600 504.537813,600 552.268958,552.268958 L552.268958,552.268958 Z"/><path id="path-copy" fill="url(#linearGradient-1)" d="M552.268958,552.268958 C600,504.537813 600,431.458333 600,300 C600,168.541667 600,95.4621875 552.268958,47.7310417 C504.537813,0 431.458333,0 300,0 C168.541667,0 95.4621875,0 47.7310417,47.7310417 C0,95.4621875 0,168.541667 0,300 C0,431.458333 0,504.537813 47.7310417,552.268958 C95.4621875,600 168.541667,600 300,600 C431.458333,600 504.537813,600 552.268958,552.268958 L552.268958,552.268958 Z"/><g id="android-calendar" transform="translate(110.000000, 108.000000)"><g id="Layer_1"><g id="Shape"><use fill="#000" fill-opacity="1" filter="url(#filter-4)" xlink:href="#path-3"/><use fill="url(#linearGradient-2)" fill-rule="evenodd" xlink:href="#path-3"/></g><g id="Path" opacity=".5"><use fill="#000" fill-opacity="1" filter="url(#filter-6)" xlink:href="#path-5"/><use fill="url(#linearGradient-2)" fill-rule="evenodd" xlink:href="#path-5"/></g></g></g></g></g></svg>