<svg xmlns="http://www.w3.org/2000/svg" xmlns:xlink="http://www.w3.org/1999/xlink" width="600" height="600" version="1.1" viewBox="0 0 600 600"><title>Group 2 Copy 31</title><desc>Created with Sketch.</desc><defs><path id="path-1" d="M552.268958,552.268958 C600,504.537813 600,431.458333 600,300 C600,168.541667 600,95.4621875 552.268958,47.7310417 C504.537813,0 431.458333,0 300,0 C168.541667,0 95.4621875,0 47.7310417,47.7310417 C0,95.4621875 0,168.541667 0,300 C0,431.458333 0,504.537813 47.7310417,552.268958 C95.4621875,600 168.541667,600 300,600 C431.458333,600 504.537813,600 552.268958,552.268958 L552.268958,552.268958 Z"/><pattern id="pattern-2" width="nan%" height="100%" x="nan%" patternUnits="objectBoundingBox"><use transform="scale(inf,inf)" xlink:href="#image-3"/></pattern><image id="image-3" width="0" height="0"/><linearGradient id="linearGradient-5" x1="50%" x2="50%" y1="0%" y2="100%"><stop offset="0%" stop-color="#FFF" stop-opacity=".2"/><stop offset="100%" stop-color="#000" stop-opacity=".139"/></linearGradient></defs><g id="Page-1" fill="none" fill-rule="evenodd" stroke="none" stroke-width="1"><g id="Group-2-Copy-31"><g id="ru"><mask id="mask-4" fill="#fff"><use xlink:href="#path-1"/></mask><use id="Mask" fill="url(#pattern-2)" xlink:href="#path-1"/><g id="Group" mask="url(#mask-4)"><g><polygon id="Shape" fill="#FFF" points="0 0 599.902 0 599.902 600 0 600"/><polygon id="Shape" fill="#0039A6" points="0 200 599.902 200 599.902 600 0 600"/><polygon id="Shape" fill="#D52B1E" points="0 400 599.902 400 599.902 600 0 600"/></g></g></g><path id="path-copy" fill="url(#linearGradient-5)" d="M552.268958,552.268958 C600,504.537813 600,431.458333 600,300 C600,168.541667 600,95.4621875 552.268958,47.7310417 C504.537813,0 431.458333,0 300,0 C168.541667,0 95.4621875,0 47.7310417,47.7310417 C0,95.4621875 0,168.541667 0,300 C0,431.458333 0,504.537813 47.7310417,552.268958 C95.4621875,600 168.541667,600 300,600 C431.458333,600 504.537813,600 552.268958,552.268958 L552.268958,552.268958 Z"/></g></g></svg>