<svg xmlns="http://www.w3.org/2000/svg" xmlns:xlink="http://www.w3.org/1999/xlink" width="606" height="606" version="1.1" viewBox="0 0 606 606"><title>Dolphin connect</title><defs><linearGradient id="linearGradient-1" x1="50%" x2="50%" y1="0%" y2="100%"><stop offset="0%" stop-color="#FFF" stop-opacity=".2"/><stop offset="100%" stop-color="#000" stop-opacity=".2"/></linearGradient><path id="path-2" d="M552.268958,552.268958 C600,504.537813 600,431.458333 600,300 C600,168.541667 600,95.4621875 552.268958,47.7310417 C504.537813,0 431.458333,0 300,0 C168.541667,0 95.4621875,0 47.7310417,47.7310417 C0,95.4621875 0,168.541667 0,300 C0,431.458333 0,504.537813 47.7310417,552.268958 C95.4621875,600 168.541667,600 300,600 C431.458333,600 504.537813,600 552.268958,552.268958 Z"/></defs><g id="Page-1" fill="none" fill-rule="evenodd" stroke="none" stroke-width="1"><g id="dolphin-connect" transform="translate(3.000000, 3.000000)"><g id="Squircle2-Copy-6"><g id="Shape"><use fill="#FFF" xlink:href="#path-2"/><use fill="url(#linearGradient-1)" stroke="#000" stroke-width="4.04" xlink:href="#path-2"/></g></g><g id="Dolphin_Logo" stroke="#39f" stroke-linejoin="round" stroke-width=".1"><path fill="#39f" d="M 2.4 1 L 2.4 0 L 3.4 0 L 3.4 1 L 2.4 1 z" transform="matrix(75 0 0 -75 42 420)"/><path fill="#39f" d="M 2.2 0.1 L 1.2 1.1 L 1.2 2.1 L 2.2 1.1 L 2.2 0.1 z" transform="matrix(75 0 0 -75 42 420)"/><path fill="#39f" d="M 3.6 1 L 4.6 1 L 3.6 0 L 3.6 1 z" transform="matrix(75 0 0 -75 42 420)"/><path fill="#39f" d="M 1.05 1 L 2.05 0 L 0.05 0 L 1.05 1 z" transform="matrix(75 0 0 -75 42 420)"/><path fill="#39f" d="M 2.55 1.2 L 4.55 3.2 L 4.55 1.2 L 2.55 1.2 z" transform="matrix(75 0 0 -75 42 420)"/><path fill="#39f" d="M 4.75 1.2 L 4.75 3.2 L 6.75 3.2 L 4.75 1.2 z" transform="matrix(75 0 0 -75 42 420)"/><path fill="#39f" d="M 4.841 1 L 5.549 1.707 L 5.549 0.293 L 4.841 1 z" transform="matrix(75 0 0 -75 42 420)"/></g></g></g></svg>