<svg xmlns="http://www.w3.org/2000/svg" xmlns:xlink="http://www.w3.org/1999/xlink" width="600" height="600" viewBox="0 0 600 600"><rect id="svgEditorBackground" width="600" height="600" x="0" y="0" style="fill:none;stroke:none"/><title>Group 2 Copy 4</title><desc>Created with Sketch.</desc><defs><linearGradient id="linearGradient-1" x1="50%" x2="50%" y1="0%" y2="100%"><stop offset="0%" stop-color="#FFF" stop-opacity=".2"/><stop offset="100%" stop-color="#000" stop-opacity=".139"/></linearGradient><path id="path-2" d="m285,135.71429c22.47768,0 40.71429,-18.23661 40.71429,-40.71429c0,-22.47768 -18.23661,-40.71429 -40.71429,-40.71429c-22.47768,0 -40.71429,18.23661 -40.71429,40.71429c0,22.47768 18.23661,40.71429 40.71429,40.71429l0,0z"/><path id="path-5" d="m356.25,0l-332.5,0c-13.23214,0 -23.75,10.77232 -23.75,24.00446l0,277.70536c0,13.23214 10.51786,24.00447 23.75,24.00447l332.5,0c13.23214,0 23.75,-10.77233 23.75,-24.00447l0,-277.70536c0,-13.23214 -10.51786,-24.00446 -23.75,-24.00446l0,0zm-87.45089,167.69196c-2.54465,-2.96875 -6.44643,-5.25892 -10.85715,-5.25892c-4.32589,0 -7.37946,2.03571 -10.85714,4.83482l-15.86161,13.40178c-3.30803,2.375 -5.9375,3.98661 -9.75446,3.98661c-3.64732,0 -6.95536,-1.35714 -9.33036,-3.47768c-0.84821,-0.76339 -2.375,-2.20536 -3.64732,-3.47768l-45.63393,-49.36607c-3.39285,-3.90178 -8.48214,-6.36161 -14.16518,-6.36161c-5.68303,0 -10.94196,2.79911 -14.25,6.61608l-107.2991,129.4375l0,-220.95983c0.84821,-5.76785 5.34375,-9.9241 11.1116,-9.9241l303.40625,0c5.85268,0 10.60268,4.32589 10.94197,10.17857l0.25446,220.875l-84.05803,-90.50447l0,0z"/><symbol xmlns="http://www.w3.org/2000/svg" id="svg_23" width="1792" height="1792" viewBox="0 0 1792 1792"><path fill="#fff" d="m1152,640q0,-106 -75,-181t-181,-75t-181,75t-75,181t75,181t181,75t181,-75t75,-181zm256,0q0,109 -33,179l-364,774q-16,33 -47.5,52t-67.5,19t-67.5,-19t-46.5,-52l-365,-774q-33,-70 -33,-179q0,-212 150,-362t362,-150t362,150t150,362z"/></symbol></defs><g class="layer"><title>Layer 1</title><path id="path" fill="#2BAF92" d="m552.26896,552.26896c47.73104,-47.73115 47.73104,-120.81063 47.73104,-252.26896c0,-131.45833 0,-204.53781 -47.73104,-252.26896c-47.73115,-47.73104 -120.81063,-47.73104 -252.26896,-47.73104c-131.45833,0 -204.53781,0 -252.26896,47.73104c-47.73104,47.73115 -47.73104,120.81063 -47.73104,252.26896c0,131.45833 0,204.53781 47.73104,252.26896c47.73115,47.73104 120.81063,47.73104 252.26896,47.73104c131.45833,0 204.53781,0 252.26896,-47.73104l0,0z"/><path id="path-copy" fill="url(#linearGradient-1)" d="M552.26896,552.26896c47.73104000000001,-47.731150000000014,47.73104000000001,-120.81063,47.73104000000001,-252.26896c0,-131.45833,0,-204.53781,-47.73104000000001,-252.26896c-47.731150000000014,-47.73104,-120.81063,-47.73104,-252.26896,-47.73104c-131.45833,0,-204.53781,0,-252.26896,47.73104c-47.73104,47.73115,-47.73104,120.81063,-47.73104,252.26896c0,131.45833,0,204.53781000000004,47.73104,252.26896c47.73115,47.73104000000001,120.81063,47.73104000000001,252.26896,47.73104000000001c131.45833,0,204.53781000000004,0,252.26896,-47.73104000000001l0,0Z"/><use id="svg_24" width="620.878" height="602.382" x="1959.958" y="624.784" transform="matrix(0.674281 0 0 0.701604 -1226.86 -337.182)" xlink:href="#svg_23"/></g></svg>