<svg xmlns="http://www.w3.org/2000/svg" xmlns:xlink="http://www.w3.org/1999/xlink" width="64" height="64" version="1.1" viewBox="0 0 64 64"><title>people</title><desc>Created with Sketch.</desc><defs><path id="path-1" d="M32,64 C46.0222222,64 53.8173667,64 58.9086889,58.9086889 C64,53.8173667 64,46.0222222 64,32 C64,17.9777778 64,10.1826333 58.9086889,5.09131111 C53.8173667,0 46.0222222,0 32,0 C17.9777778,0 10.1826333,0 5.09131111,5.09131111 C0,10.1826333 0,17.9777778 0,32 C0,46.0222222 0,53.8173667 5.09131111,58.9086889 C10.1826333,64 17.9777778,64 32,64 Z"/><linearGradient id="linearGradient-3" x1="50%" x2="50%" y1="0%" y2="100%"><stop offset="0%" stop-color="#FDFEFF"/><stop offset="100%" stop-color="#FBFCFD" stop-opacity=".9"/></linearGradient><path id="path-4" d="M17.5,20 C23.0234375,20 27.5,15.5234375 27.5,10 C27.5,4.4765625 23.0234375,0 17.5,0 C11.9765625,0 7.5,4.4765625 7.5,10 C7.5,15.5234375 11.9765625,20 17.5,20 Z M24.5,22.5 L23.1953125,22.5 C21.4609375,23.296875 19.53125,23.75 17.5,23.75 C15.46875,23.75 13.546875,23.296875 11.8046875,22.5 L10.5,22.5 C4.703125,22.5 0,27.203125 0,33 L0,36.25 C0,38.3203125 1.6796875,40 3.75,40 L31.25,40 C33.3203125,40 35,38.3203125 35,36.25 L35,33 C35,27.203125 30.296875,22.5 24.5,22.5 Z"/><filter id="filter-5" width="111.4%" height="110%" x="-5.7%" y="-2.5%" filterUnits="objectBoundingBox"><feOffset dx="0" dy="1" in="SourceAlpha" result="shadowOffsetOuter1"/><feGaussianBlur in="shadowOffsetOuter1" result="shadowBlurOuter1" stdDeviation=".5"/><feColorMatrix in="shadowBlurOuter1" type="matrix" values="0 0 0 0 0 0 0 0 0 0 0 0 0 0 0 0 0 0 0.1 0"/></filter></defs><g id="Page-1" fill="none" fill-rule="evenodd" stroke="none" stroke-width="1"><g id="Artboard" transform="translate(-340.000000, -594.000000)"><g id="people" transform="translate(340.000000, 594.000000)"><mask id="mask-2" fill="#fff"><use xlink:href="#path-1"/></mask><use id="Path" fill="#FF9500" xlink:href="#path-1"/><g id="user" fill-rule="nonzero" mask="url(#mask-2)"><g id="Shape"><g transform="translate(15.000000, 11.000000)"><use fill="#000" fill-opacity="1" filter="url(#filter-5)" xlink:href="#path-4"/><use fill="url(#linearGradient-3)" xlink:href="#path-4"/></g></g></g></g></g></g></svg>