<svg xmlns="http://www.w3.org/2000/svg" width="1440" height="900"><path fill="#569FCD" stroke="#569FCD" stroke-width="1.51" d="M771,503L910,536L909,405Z"/><path fill="#6CACD4" stroke="#6CACD4" stroke-width="1.51" d="M909,405L704,345L771,503Z"/><path fill="#4892C6" stroke="#4892C6" stroke-width="1.51" d="M910,536L1089,584L909,405Z"/><path fill="#3380BE" stroke="#3380BE" stroke-width="1.51" d="M906,789L1089,584L910,536Z"/><path fill="#3B83BE" stroke="#3B83BE" stroke-width="1.51" d="M695,768L906,789L910,536Z"/><path fill="#71B0D7" stroke="#71B0D7" stroke-width="1.51" d="M704,345L552,521L771,503Z"/><path fill="#7EB3D7" stroke="#7EB3D7" stroke-width="1.51" d="M909,405L960,184L704,345Z"/><path fill="#74A5D1" stroke="#74A5D1" stroke-width="1.51" d="M1149,335L960,184L909,405Z"/><path fill="#4B94C8" stroke="#4B94C8" stroke-width="1.51" d="M695,768L910,536L771,503Z"/><path fill="#5093C8" stroke="#5093C8" stroke-width="1.51" d="M1089,584L1149,335L909,405Z"/><path fill="#5C9ECD" stroke="#5C9ECD" stroke-width="1.51" d="M552,521L695,768L771,503Z"/><path fill="#8BBEDD" stroke="#8BBEDD" stroke-width="1.51" d="M704,345L556,297L552,521Z"/><path fill="#93BFDF" stroke="#93BFDF" stroke-width="1.51" d="M960,184L665,186L704,345Z"/><path fill="#9CC6E2" stroke="#9CC6E2" stroke-width="1.51" d="M665,186L556,297L704,345Z"/><path fill="#7AADD5" stroke="#7AADD5" stroke-width="1.51" d="M353,498L548,715L552,521Z"/><path fill="#6199CA" stroke="#6199CA" stroke-width="1.51" d="M552,521L548,715L695,768Z"/><path fill="#236FB2" stroke="#236FB2" stroke-width="1.51" d="M906,789L1125,767L1089,584Z"/><path fill="#5186BD" stroke="#5186BD" stroke-width="1.51" d="M1287,575L1246,322L1149,335Z"/><path fill="#B9D7EA" stroke="#B9D7EA" stroke-width="1.51" d="M568,-63L564,164L665,186Z"/><path fill="#80A5D3" stroke="#80A5D3" stroke-width="1.51" d="M1149,335L1105,153L960,184Z"/><path fill="#ACCEE7" stroke="#ACCEE7" stroke-width="1.51" d="M665,186L564,164L556,297Z"/><path fill="#9BC0E0" stroke="#9BC0E0" stroke-width="1.51" d="M968,-40L665,186L960,184Z"/><path fill="#7398C9" stroke="#7398C9" stroke-width="1.51" d="M1149,335L1246,322L1105,153Z"/><path fill="#3F80BB" stroke="#3F80BB" stroke-width="1.51" d="M1287,575L1149,335L1089,584Z"/><path fill="#1B5B9E" stroke="#1B5B9E" stroke-width="1.51" d="M906,789L1122,959L1125,767Z"/><path fill="#3B74AF" stroke="#3B74AF" stroke-width="1.51" d="M695,768L752,897L906,789Z"/><path fill="#4C75A9" stroke="#4C75A9" stroke-width="1.51" d="M513,939L752,897L695,768Z"/><path fill="#226BAF" stroke="#226BAF" stroke-width="1.51" d="M1253,750L1287,575L1089,584Z"/><path fill="#3368A1" stroke="#3368A1" stroke-width="1.51" d="M752,897L853,931L906,789Z"/><path fill="#1B66AC" stroke="#1B66AC" stroke-width="1.51" d="M1125,767L1253,750L1089,584Z"/><path fill="#11539A" stroke="#11539A" stroke-width="1.51" d="M1122,959L1253,750L1125,767Z"/><path fill="#9AC6E1" stroke="#9AC6E1" stroke-width="1.51" d="M556,297L382,324L552,521Z"/><path fill="#B0D2E7" stroke="#B0D2E7" stroke-width="1.51" d="M564,164L382,324L556,297Z"/><path fill="#93C1E0" stroke="#93C1E0" stroke-width="1.51" d="M382,324L353,498L552,521Z"/><path fill="#8EAED8" stroke="#8EAED8" stroke-width="1.51" d="M1105,153L1087,20L960,184Z"/><path fill="#87A2CF" stroke="#87A2CF" stroke-width="1.51" d="M1300,228L1087,20L1105,153Z"/><path fill="#7897C8" stroke="#7897C8" stroke-width="1.51" d="M1246,322L1300,228L1105,153Z"/><path fill="#6A87B7" stroke="#6A87B7" stroke-width="1.51" d="M1447,299L1300,228L1246,322Z"/><path fill="#98B7DC" stroke="#98B7DC" stroke-width="1.51" d="M1087,20L968,-40L960,184Z"/><path fill="#245B96" stroke="#245B96" stroke-width="1.51" d="M853,931L1122,959L906,789Z"/><path fill="#78A3D1" stroke="#78A3D1" stroke-width="1.51" d="M353,498L379,782L548,715Z"/><path fill="#5A84B8" stroke="#5A84B8" stroke-width="1.51" d="M548,715L513,939L695,768Z"/><path fill="#37679C" stroke="#37679C" stroke-width="1.51" d="M752,897L751,1077L853,931Z"/><path fill="#688ABB" stroke="#688ABB" stroke-width="1.51" d="M379,782L513,939L548,715Z"/><path fill="#225894" stroke="#225894" stroke-width="1.51" d="M853,931L959,1152L1122,959Z"/><path fill="#C1D9ED" stroke="#C1D9ED" stroke-width="1.51" d="M564,164L294,153L382,324Z"/><path fill="#AECEE8" stroke="#AECEE8" stroke-width="1.51" d="M968,-40L676,-83L665,186Z"/><path fill="#3C74AE" stroke="#3C74AE" stroke-width="1.51" d="M1287,575L1428,559L1246,322Z"/><path fill="#2161A3" stroke="#2161A3" stroke-width="1.51" d="M1253,750L1428,559L1287,575Z"/><path fill="#144F92" stroke="#144F92" stroke-width="1.51" d="M1530,784L1428,559L1253,750Z"/><path fill="#BEDAEC" stroke="#BEDAEC" stroke-width="1.51" d="M676,-83L568,-63L665,186Z"/><path fill="#476FA1" stroke="#476FA1" stroke-width="1.51" d="M513,939L751,1077L752,897Z"/><path fill="#8C9FCC" stroke="#8C9FCC" stroke-width="1.51" d="M1300,228L1346,-83L1087,20Z"/><path fill="#5079AC" stroke="#5079AC" stroke-width="1.51" d="M1428,559L1447,299L1246,322Z"/><path fill="#9DC4E2" stroke="#9DC4E2" stroke-width="1.51" d="M127,415L163,593L353,498Z"/><path fill="#7688B4" stroke="#7688B4" stroke-width="1.51" d="M166,886L334,937L379,782Z"/><path fill="#CDE1F1" stroke="#CDE1F1" stroke-width="1.51" d="M388,1L294,153L564,164Z"/><path fill="#A9C9E5" stroke="#A9C9E5" stroke-width="1.51" d="M968,-40L904,-178L676,-83Z"/><path fill="#BFDBED" stroke="#BFDBED" stroke-width="1.51" d="M676,-83L661,-156L568,-63Z"/><path fill="#9EBBDE" stroke="#9EBBDE" stroke-width="1.51" d="M1132,-221L904,-178L968,-40Z"/><path fill="#9BB5DB" stroke="#9BB5DB" stroke-width="1.51" d="M1132,-221L968,-40L1087,20Z"/><path fill="#CBE1F0" stroke="#CBE1F0" stroke-width="1.51" d="M568,-63L388,1L564,164Z"/><path fill="#B2D2EA" stroke="#B2D2EA" stroke-width="1.51" d="M904,-178L661,-156L676,-83Z"/><path fill="#D9E8F5" stroke="#D9E8F5" stroke-width="1.51" d="M286,-229L388,1L568,-63Z"/><path fill="#0B4589" stroke="#0B4589" stroke-width="1.51" d="M1122,959L1324,934L1253,750Z"/><path fill="#0B4285" stroke="#0B4285" stroke-width="1.51" d="M1270,1077L1324,934L1122,959Z"/><path fill="#6E82AF" stroke="#6E82AF" stroke-width="1.51" d="M1447,299L1471,194L1300,228Z"/><path fill="#657CA8" stroke="#657CA8" stroke-width="1.51" d="M1603,332L1471,194L1447,299Z"/><path fill="#2F6299" stroke="#2F6299" stroke-width="1.51" d="M751,1077L959,1152L853,931Z"/><path fill="#5475A3" stroke="#5475A3" stroke-width="1.51" d="M513,939L481,1091L751,1077Z"/><path fill="#3E6B9F" stroke="#3E6B9F" stroke-width="1.51" d="M751,1077L481,1091L959,1152Z"/><path fill="#6A80AD" stroke="#6A80AD" stroke-width="1.51" d="M379,782L334,937L513,939Z"/><path fill="#89AFD8" stroke="#89AFD8" stroke-width="1.51" d="M163,593L379,782L353,498Z"/><path fill="#A8CCE6" stroke="#A8CCE6" stroke-width="1.51" d="M127,415L353,498L382,324Z"/><path fill="#195190" stroke="#195190" stroke-width="1.51" d="M959,1152L1092,1136L1122,959Z"/><path fill="#637CA7" stroke="#637CA7" stroke-width="1.51" d="M383,1053L481,1091L513,939Z"/><path fill="#7888B3" stroke="#7888B3" stroke-width="1.51" d="M1471,194L1434,42L1300,228Z"/><path fill="#C0D9EC" stroke="#C0D9EC" stroke-width="1.51" d="M294,153L127,415L382,324Z"/><path fill="#D2E2F3" stroke="#D2E2F3" stroke-width="1.51" d="M143,108L127,415L294,153Z"/><path fill="#11488A" stroke="#11488A" stroke-width="1.51" d="M1092,1136L1270,1077L1122,959Z"/><path fill="#8492BC" stroke="#8492BC" stroke-width="1.51" d="M1434,42L1346,-83L1300,228Z"/><path fill="#95A9D2" stroke="#95A9D2" stroke-width="1.51" d="M1346,-83L1132,-221L1087,20Z"/><path fill="#B5D4EB" stroke="#B5D4EB" stroke-width="1.51" d="M904,-178L587,-266L661,-156Z"/><path fill="#4C72A2" stroke="#4C72A2" stroke-width="1.51" d="M1428,559L1603,332L1447,299Z"/><path fill="#094185" stroke="#094185" stroke-width="1.51" d="M1324,934L1530,784L1253,750Z"/><path fill="#083470" stroke="#083470" stroke-width="1.51" d="M1535,901L1530,784L1324,934Z"/><path fill="#697EA9" stroke="#697EA9" stroke-width="1.51" d="M334,937L383,1053L513,939Z"/><path fill="#7483AD" stroke="#7483AD" stroke-width="1.51" d="M94,1151L383,1053L334,937Z"/><path fill="#7E89B1" stroke="#7E89B1" stroke-width="1.51" d="M1471,194L1620,-5L1434,42Z"/><path fill="#3A689D" stroke="#3A689D" stroke-width="1.51" d="M1624,551L1603,332L1428,559Z"/><path fill="#88A6D2" stroke="#88A6D2" stroke-width="1.51" d="M163,593L121,726L379,782Z"/><path fill="#9BBADE" stroke="#9BBADE" stroke-width="1.51" d="M-79,517L121,726L163,593Z"/><path fill="#255B95" stroke="#255B95" stroke-width="1.51" d="M1645,663L1624,551L1428,559Z"/><path fill="#A7C7E4" stroke="#A7C7E4" stroke-width="1.51" d="M1132,-221L587,-266L904,-178Z"/><path fill="#C3DDEE" stroke="#C3DDEE" stroke-width="1.51" d="M661,-156L587,-266L568,-63Z"/><path fill="#E0ECF8" stroke="#E0ECF8" stroke-width="1.51" d="M199,-67L294,153L388,1Z"/><path fill="#E2EDF8" stroke="#E2EDF8" stroke-width="1.51" d="M199,-67L143,108L294,153Z"/><path fill="#8096C6" stroke="#8096C6" stroke-width="1.51" d="M121,726L166,886L379,782Z"/><path fill="#175090" stroke="#175090" stroke-width="1.51" d="M1530,784L1645,663L1428,559Z"/><path fill="#08316C" stroke="#08316C" stroke-width="1.51" d="M1434,1086L1535,901L1324,934Z"/><path fill="#093F82" stroke="#093F82" stroke-width="1.51" d="M1597,933L1645,663L1530,784Z"/><path fill="#5475A3" stroke="#5475A3" stroke-width="1.51" d="M1624,551L1664,214L1603,332Z"/><path fill="#E3EEF9" stroke="#E3EEF9" stroke-width="1.51" d="M286,-229L199,-67L388,1Z"/><path fill="#093978" stroke="#093978" stroke-width="1.51" d="M1270,1077L1434,1086L1324,934Z"/><path fill="#094083" stroke="#094083" stroke-width="1.51" d="M1092,1136L1434,1086L1270,1077Z"/><path fill="#6A7FAA" stroke="#6A7FAA" stroke-width="1.51" d="M1603,332L1664,214L1471,194Z"/><path fill="#8992B9" stroke="#8992B9" stroke-width="1.51" d="M1524,-207L1341,-247L1346,-83Z"/><path fill="#3A699D" stroke="#3A699D" stroke-width="1.51" d="M1645,663L1664,214L1624,551Z"/><path fill="#CEE2F1" stroke="#CEE2F1" stroke-width="1.51" d="M143,108L9,325L127,415Z"/><path fill="#A7C9E5" stroke="#A7C9E5" stroke-width="1.51" d="M127,415L-79,517L163,593Z"/><path fill="#E0ECF8" stroke="#E0ECF8" stroke-width="1.51" d="M-64,145L9,325L143,108Z"/><path fill="#9DB9DD" stroke="#9DB9DD" stroke-width="1.51" d="M1132,-221L1341,-247L587,-266Z"/><path fill="#91A0CB" stroke="#91A0CB" stroke-width="1.51" d="M1346,-83L1341,-247L1132,-221Z"/><path fill="#878FB4" stroke="#878FB4" stroke-width="1.51" d="M1524,-207L1346,-83L1434,42Z"/><path fill="#08306B" stroke="#08306B" stroke-width="1.51" d="M1434,1086L1597,933L1535,901Z"/><path fill="#093471" stroke="#093471" stroke-width="1.51" d="M1535,901L1597,933L1530,784Z"/><path fill="#D2E5F2" stroke="#D2E5F2" stroke-width="1.51" d="M587,-266L286,-229L568,-63Z"/><path fill="#7886AE" stroke="#7886AE" stroke-width="1.51" d="M1664,214L1620,-5L1471,194Z"/><path fill="#8998C3" stroke="#8998C3" stroke-width="1.51" d="M121,726L-50,855L166,886Z"/><path fill="#B9D7EC" stroke="#B9D7EC" stroke-width="1.51" d="M9,325L-79,517L127,415Z"/><path fill="#E8F1FA" stroke="#E8F1FA" stroke-width="1.51" d="M286,-229L167,-169L199,-67Z"/><path fill="#ECF3FC" stroke="#ECF3FC" stroke-width="1.51" d="M-14,13L-64,145L143,108Z"/><path fill="#C0DBED" stroke="#C0DBED" stroke-width="1.51" d="M9,325L-196,346L-79,517Z"/><path fill="#9AB3DA" stroke="#9AB3DA" stroke-width="1.51" d="M-79,517L-44,780L121,726Z"/><path fill="#7986AF" stroke="#7986AF" stroke-width="1.51" d="M166,886L94,1151L334,937Z"/><path fill="#878EB3" stroke="#878EB3" stroke-width="1.51" d="M1620,-5L1524,-207L1434,42Z"/><path fill="#EEF4FC" stroke="#EEF4FC" stroke-width="1.51" d="M-14,13L143,108L199,-67Z"/><path fill="#EFF6FD" stroke="#EFF6FD" stroke-width="1.51" d="M167,-169L-14,13L199,-67Z"/><path fill="#909EC9" stroke="#909EC9" stroke-width="1.51" d="M-199,782L-50,855L-44,780Z"/><path fill="#91A1CD" stroke="#91A1CD" stroke-width="1.51" d="M-44,780L-50,855L121,726Z"/><path fill="#848DB2" stroke="#848DB2" stroke-width="1.51" d="M1664,214L1639,-141L1620,-5Z"/><path fill="#878EB3" stroke="#878EB3" stroke-width="1.51" d="M1620,-5L1639,-141L1524,-207Z"/><path fill="#7182AC" stroke="#7182AC" stroke-width="1.51" d="M383,1053L94,1151L481,1091Z"/><path fill="#5E7AA6" stroke="#5E7AA6" stroke-width="1.51" d="M481,1091L94,1151L959,1152Z"/><path fill="#808BB1" stroke="#808BB1" stroke-width="1.51" d="M25,1088L94,1151L166,886Z"/><path fill="#838CB2" stroke="#838CB2" stroke-width="1.51" d="M-50,855L25,1088L166,886Z"/><path fill="#08306B" stroke="#08306B" stroke-width="1.51" d="M1434,1086L1652,1152L1597,933Z"/><path fill="#08306B" stroke="#08306B" stroke-width="1.51" d="M1597,933L1652,1152L1645,663Z"/><path fill="#164F8F" stroke="#164F8F" stroke-width="1.51" d="M1645,663L1652,1152L1664,214Z"/><path fill="#093471" stroke="#093471" stroke-width="1.51" d="M1092,1136L1652,1152L1434,1086Z"/><path fill="#0B4285" stroke="#0B4285" stroke-width="1.51" d="M959,1152L1652,1152L1092,1136Z"/><path fill="#E0ECF8" stroke="#E0ECF8" stroke-width="1.51" d="M-179,151L-196,346L-64,145Z"/><path fill="#D7E7F4" stroke="#D7E7F4" stroke-width="1.51" d="M-64,145L-196,346L9,325Z"/><path fill="#98B0D8" stroke="#98B0D8" stroke-width="1.51" d="M-79,517L-199,782L-44,780Z"/><path fill="#ECF3FC" stroke="#ECF3FC" stroke-width="1.51" d="M-14,13L-179,151L-64,145Z"/><path fill="#F2F7FD" stroke="#F2F7FD" stroke-width="1.51" d="M-283,-11L-179,151L-14,13Z"/><path fill="#F3F8FD" stroke="#F3F8FD" stroke-width="1.51" d="M167,-169L19,-225L-14,13Z"/><path fill="#ECF4FC" stroke="#ECF4FC" stroke-width="1.51" d="M286,-229L19,-225L167,-169Z"/><path fill="#E3EEF9" stroke="#E3EEF9" stroke-width="1.51" d="M587,-266L19,-225L286,-229Z"/><path fill="#878EB3" stroke="#878EB3" stroke-width="1.51" d="M-50,855L-226,858L25,1088Z"/><path fill="#A1BFE0" stroke="#A1BFE0" stroke-width="1.51" d="M-269,498L-199,782L-79,517Z"/><path fill="#D6E7F3" stroke="#D6E7F3" stroke-width="1.51" d="M-283,-11L-269,498L-196,346Z"/><path fill="#B4D3EA" stroke="#B4D3EA" stroke-width="1.51" d="M-196,346L-269,498L-79,517Z"/><path fill="#97ADD6" stroke="#97ADD6" stroke-width="1.51" d="M-269,498L-226,858L-199,782Z"/><path fill="#8D9AC3" stroke="#8D9AC3" stroke-width="1.51" d="M-199,782L-226,858L-50,855Z"/><path fill="#E5EFF9" stroke="#E5EFF9" stroke-width="1.51" d="M-179,151L-283,-11L-196,346Z"/><path fill="#F7FBFF" stroke="#F7FBFF" stroke-width="1.51" d="M-219,-173L-283,-11L-14,13Z"/><path fill="#F7FBFF" stroke="#F7FBFF" stroke-width="1.51" d="M19,-225L-219,-173L-14,13Z"/><path fill="#8D98C1" stroke="#8D98C1" stroke-width="1.51" d="M-269,498L-280,1164L-226,858Z"/><path fill="#878EB3" stroke="#878EB3" stroke-width="1.51" d="M-226,858L-280,1164L25,1088Z"/><path fill="#878EB3" stroke="#878EB3" stroke-width="1.51" d="M25,1088L-280,1164L94,1151Z"/><path fill="#7584AE" stroke="#7584AE" stroke-width="1.51" d="M94,1151L-280,1164L959,1152Z"/><path fill="#38689D" stroke="#38689D" stroke-width="1.51" d="M959,1152L-280,1164L1652,1152Z"/><path fill="#A6C7E4" stroke="#A6C7E4" stroke-width="1.51" d="M-283,-11L-280,1164L-269,498Z"/></svg>