<svg xmlns="http://www.w3.org/2000/svg" xmlns:xlink="http://www.w3.org/1999/xlink" width="64" height="64" version="1.1" viewBox="0 0 64 64"><title>orgs</title><desc>Created with Sketch.</desc><defs><path id="path-1" d="M32,64 C46.0222222,64 53.8173667,64 58.9086889,58.9086889 C64,53.8173667 64,46.0222222 64,32 C64,17.9777778 64,10.1826333 58.9086889,5.09131111 C53.8173667,0 46.0222222,0 32,0 C17.9777778,0 10.1826333,0 5.09131111,5.09131111 C0,10.1826333 0,17.9777778 0,32 C0,46.0222222 0,53.8173667 5.09131111,58.9086889 C10.1826333,64 17.9777778,64 32,64 Z"/><path id="path-3" d="M32,64 C46.0222222,64 53.8173667,64 58.9086889,58.9086889 C64,53.8173667 64,46.0222222 64,32 C64,17.9777778 64,10.1826333 58.9086889,5.09131111 C53.8173667,0 46.0222222,0 32,0 C17.9777778,0 10.1826333,0 5.09131111,5.09131111 C0,10.1826333 0,17.9777778 0,32 C0,46.0222222 0,53.8173667 5.09131111,58.9086889 C10.1826333,64 17.9777778,64 32,64 Z"/><linearGradient id="linearGradient-5" x1="50%" x2="50%" y1="0%" y2="100%"><stop offset="0%" stop-color="#FDFEFF"/><stop offset="100%" stop-color="#FBFCFD" stop-opacity=".9"/></linearGradient><path id="path-6" d="M25,23.75 C25,24.440625 24.440625,25 23.75,25 L16.25,25 C15.559375,25 15,24.440625 15,23.75 L15,20 L0,20 L0,31.25 C0,33.25 1.75,35 3.75,35 L36.25,35 C38.25,35 40,33.25 40,31.25 L40,20 L25,20 L25,23.75 Z M36.25,7.5 L30,7.5 L30,3.75 C30,1.75 28.25,0 26.25,0 L13.75,0 C11.75,0 10,1.75 10,3.75 L10,7.5 L3.75,7.5 C1.75,7.5 0,9.25 0,11.25 L0,17.5 L40,17.5 L40,11.25 C40,9.25 38.25,7.5 36.25,7.5 Z M25,7.5 L15,7.5 L15,5 L25,5 L25,7.5 Z"/><filter id="filter-7" width="110%" height="111.4%" x="-5%" y="-2.9%" filterUnits="objectBoundingBox"><feOffset dx="0" dy="1" in="SourceAlpha" result="shadowOffsetOuter1"/><feGaussianBlur in="shadowOffsetOuter1" result="shadowBlurOuter1" stdDeviation=".5"/><feColorMatrix in="shadowBlurOuter1" type="matrix" values="0 0 0 0 0 0 0 0 0 0 0 0 0 0 0 0 0 0 0.1 0"/></filter></defs><g id="Page-1" fill="none" fill-rule="evenodd" stroke="none" stroke-width="1"><g id="Artboard" transform="translate(-421.000000, -594.000000)"><g id="orgs" transform="translate(421.000000, 594.000000)"><mask id="mask-2" fill="#fff"><use xlink:href="#path-1"/></mask><use id="Path" fill="#FF9500" xlink:href="#path-1"/><mask id="mask-4" fill="#fff"><use xlink:href="#path-3"/></mask><use id="Path-Copy" fill="#FF9500" xlink:href="#path-3"/><g id="briefcase" fill-rule="nonzero" mask="url(#mask-4)"><g id="Shape"><g transform="translate(12.000000, 13.000000)"><use fill="#000" fill-opacity="1" filter="url(#filter-7)" xlink:href="#path-6"/><use fill="url(#linearGradient-5)" xlink:href="#path-6"/></g></g></g></g></g></g></svg>