<svg xmlns="http://www.w3.org/2000/svg" xmlns:svg="http://www.w3.org/2000/svg" width="600" height="600"><title>Group 2 Copy 25</title><desc>Created with Sketch.</desc><defs><linearGradient id="linearGradient-1" x1="50%" x2="50%" y1="0%" y2="100%"><stop offset="0%" stop-color="#FFF" stop-opacity=".2"/><stop offset="100%" stop-color="#000" stop-opacity=".139"/></linearGradient><path id="path-3" d="m286.8,104.5c-0.7,-2.9 -2,-5 -3.5,-6.8l-83.7,-91.7c-1.9,-2.1 -4.1,-3.1 -6.6,-4.4c-2.9,-1.5 -6.1,-1.6 -9.4,-1.6l-159.9,0c-12.4,0 -23.7,9.6 -23.7,22.9l0,335.2c0,13.4 11.3,25.9 23.7,25.9l243.1,0c12.4,0 21.2,-12.5 21.2,-25.9l0,-244.1c0,-3.6 -0.4,-6.2 -1.2,-9.5l0,0zm-93.8,-57.9l58,63.5l-58,0l0,-63.5l0,0zm-161,305.5l0,-320l129,0l0,81.7c0,14.8 13.4,28.3 28.1,28.3l66.9,0l0,210l-224,0l0,0z"/><rect id="path-5" width="180" height="15" x="50" y="281"/><rect id="path-7" width="180" height="15" x="50" y="250"/><rect id="path-9" width="180" height="15" x="50" y="221"/><rect id="path-11" width="180" height="15" x="50" y="190"/><rect id="path-13" width="90" height="15" x="50" y="311"/><rect id="path-15" width="90" height="106" x="50" y="60"/></defs><g class="layer"><title>Layer 1</title><path id="path" fill="#2BAF92" d="m552.26896,552.26896c47.73104,-47.73115 47.73104,-120.81063 47.73104,-252.26896c0,-131.45833 0,-204.53781 -47.73104,-252.26896c-47.73115,-47.73104 -120.81063,-47.73104 -252.26896,-47.73104c-131.45833,0 -204.53781,0 -252.26896,47.73104c-47.73104,47.73115 -47.73104,120.81063 -47.73104,252.26896c0,131.45833 0,204.53781 47.73104,252.26896c47.73115,47.73104 120.81063,47.73104 252.26896,47.73104c131.45833,0 204.53781,0 252.26896,-47.73104l0,0z"/><path id="path-copy" fill="url(#linearGradient-1)" d="m552.26896,552.26896c47.73104,-47.73115 47.73104,-120.81063 47.73104,-252.26896c0,-131.45833 0,-204.53781 -47.73104,-252.26896c-47.73115,-47.73104 -120.81063,-47.73104 -252.26896,-47.73104c-131.45833,0 -204.53781,0 -252.26896,47.73104c-47.73104,47.73115 -47.73104,120.81063 -47.73104,252.26896c0,131.45833 0,204.53781 47.73104,252.26896c47.73115,47.73104 120.81063,47.73104 252.26896,47.73104c131.45833,0 204.53781,0 252.26896,-47.73104l0,0z"/><g id="svg_18" transform="matrix(2.2602139994383266,0,0,2.5838779465780393,-877.1328715713757,-247.8060971652189)"><path id="svg_19" fill="#fff" d="m521.91797,139.70845q-22.76786,0 -42.57812,7.7567t-31.47322,20.92634t-11.66294,28.45982q0,12.5 7.97991,23.82812t22.48884,19.58706l9.70982,5.58035l-3.0134,10.71429q-2.67857,10.15625 -7.8125,19.19643q16.96429,-7.03125 30.69197,-19.08482l4.79911,-4.24107l6.3616,0.66964q7.7009,0.89286 14.50893,0.89286q22.76786,0 42.57813,-7.7567t31.47321,-20.92634t11.66295,-28.45982t-11.66295,-28.45982t-31.47321,-20.92634t-42.57813,-7.75669l0,-0.00001zm100,57.14286q0,19.41964 -13.39286,35.8817t-36.38392,26.00446t-50.22322,9.54241q-7.8125,0 -16.18303,-0.89286q-22.09822,19.53125 -51.33929,27.00893q-5.46875,1.5625 -12.72321,2.45536l-0.55804,0q-1.67411,0 -3.01339,-1.17187t-1.78572,-3.0692l0,-0.11161q-0.33482,-0.44643 -0.0558,-1.33928t0.22321,-1.11607t0.50224,-1.06027l0.66964,-1.00447l0.78125,-0.94866l0.89286,-1.00446q0.78125,-0.89286 3.45982,-3.85045t3.85044,-4.24107t3.45982,-4.40848t3.62724,-5.69196t3.01339,-6.58483t2.90178,-8.48214q-17.52232,-9.93303 -27.62276,-24.55357t-10.10045,-31.36161q0,-19.41964 13.39286,-35.88169t36.38393,-26.00447t50.22321,-9.54241t50.22321,9.54241t36.38393,26.00447t13.39286,35.88169z"/></g><text id="svg_20" x="254.046" y="218.552" fill="#fff" stroke="#000" stroke-width="0" font-family="Monospace" font-size="36" font-weight="normal" text-anchor="middle" transform="matrix(5.0786242728501065,0,0,4.653485596179962,-986.8859732762057,-710.7709891116247)" xml:space="preserve">NEW</text></g></svg>