<svg xmlns="http://www.w3.org/2000/svg" xmlns:xlink="http://www.w3.org/1999/xlink" width="64" height="64" version="1.1" viewBox="0 0 64 64"><title>Antispam</title><desc>Created with Sketch.</desc><defs><path id="path-1" d="M32,64 C46.0222222,64 53.8173667,64 58.9086889,58.9086889 C64,53.8173667 64,46.0222222 64,32 C64,17.9777778 64,10.1826333 58.9086889,5.09131111 C53.8173667,0 46.0222222,0 32,0 C17.9777778,0 10.1826333,0 5.09131111,5.09131111 C0,10.1826333 0,17.9777778 0,32 C0,46.0222222 0,53.8173667 5.09131111,58.9086889 C10.1826333,64 17.9777778,64 32,64 Z"/><linearGradient id="linearGradient-3" x1="50%" x2="50%" y1="0%" y2="100%"><stop offset="0%" stop-color="#FDFEFF"/><stop offset="100%" stop-color="#FBFCFD" stop-opacity=".9"/></linearGradient><path id="path-4" d="M20,0 C8.95435484,0 0,8.95427419 0,20 C0,31.0457258 8.95435484,40 20,40 C31.0456452,40 40,31.0456452 40,20 C40,8.95435484 31.0457258,0 20,0 Z M30.4925806,9.50741935 C35.7706452,14.7854839 36.1377419,22.8526613 32.1600806,28.5104032 L11.4895161,7.84 C17.151129,3.85967742 25.2174194,4.23233871 30.4925806,9.50741935 Z M9.50741935,30.4925806 C4.22935484,25.2145161 3.86225806,17.1473387 7.83991935,11.4895968 L28.5104839,32.16 C22.8489516,36.1403226 14.7825806,35.7677419 9.50741935,30.4925806 Z"/><filter id="filter-5" width="110%" height="110%" x="-5%" y="-2.5%" filterUnits="objectBoundingBox"><feOffset dx="0" dy="1" in="SourceAlpha" result="shadowOffsetOuter1"/><feGaussianBlur in="shadowOffsetOuter1" result="shadowBlurOuter1" stdDeviation=".5"/><feColorMatrix in="shadowBlurOuter1" type="matrix" values="0 0 0 0 0 0 0 0 0 0 0 0 0 0 0 0 0 0 0.1 0"/></filter></defs><g id="Page-1" fill="none" fill-rule="evenodd" stroke="none" stroke-width="1"><g id="Artboard" transform="translate(-583.000000, -348.000000)"><g id="Antispam" transform="translate(583.000000, 348.000000)"><mask id="mask-2" fill="#fff"><use xlink:href="#path-1"/></mask><use id="Path" fill="#FF3B38" xlink:href="#path-1"/><g id="ban" fill-rule="nonzero" mask="url(#mask-2)"><g id="Shape"><g transform="translate(12.000000, 12.000000)"><use fill="#000" fill-opacity="1" filter="url(#filter-5)" xlink:href="#path-4"/><use fill="url(#linearGradient-3)" xlink:href="#path-4"/></g></g></g></g></g></g></svg>