<svg xmlns="http://www.w3.org/2000/svg" xmlns:xlink="http://www.w3.org/1999/xlink" width="606" height="606" version="1.1" viewBox="0 0 606 606"><title>elasticsearch</title><style type="text/css">.st0{clip-path:url(#SVGID_2_);fill:#f0bf1a}.st1{clip-path:url(#SVGID_4_);fill:#3ebeb0}.st2{clip-path:url(#SVGID_6_);fill:#07a5de}.st3{clip-path:url(#SVGID_8_);fill:#231f20}.st4{fill:#d7a229}.st5{fill:#019b8f}</style><defs><linearGradient id="linearGradient-1" x1="50%" x2="50%" y1="0%" y2="100%"><stop offset="0%" stop-color="#FFF" stop-opacity=".2"/><stop offset="100%" stop-color="#000" stop-opacity=".2"/></linearGradient></defs><g id="Page-1" fill="none" fill-rule="evenodd" stroke="none" stroke-width="1"><g id="shopify" transform="translate(3.000000, 3.000000)"><g id="Squircle2-Copy-6" fill-rule="nonzero"><g id="Shape"><g id="path-2-link" fill="#FFF"><path id="path-2" d="M552.268958,552.268958 C600,504.537813 600,431.458333 600,300 C600,168.541667 600,95.4621875 552.268958,47.7310417 C504.537813,0 431.458333,0 300,0 C168.541667,0 95.4621875,0 47.7310417,47.7310417 C0,95.4621875 0,168.541667 0,300 C0,431.458333 0,504.537813 47.7310417,552.268958 C95.4621875,600 168.541667,600 300,600 C431.458333,600 504.537813,600 552.268958,552.268958 Z"/></g><g id="path-2-link" fill="url(#linearGradient-1)" stroke="#000" stroke-width="4.04"><path id="path-2" d="M552.268958,552.268958 C600,504.537813 600,431.458333 600,300 C600,168.541667 600,95.4621875 552.268958,47.7310417 C504.537813,0 431.458333,0 300,0 C168.541667,0 95.4621875,0 47.7310417,47.7310417 C0,95.4621875 0,168.541667 0,300 C0,431.458333 0,504.537813 47.7310417,552.268958 C95.4621875,600 168.541667,600 300,600 C431.458333,600 504.537813,600 552.268958,552.268958 Z"/></g></g></g><g id="elasticsearch-logo-default" opacity=".9"><g><g><g transform="translate(80.000000, 60.000000) scale(6,6)"><defs><circle id="SVGID_1_" cx="40" cy="40" r="32"/></defs><clipPath id="SVGID_2_"><use xlink:href="#SVGID_1_" style="overflow:visible"/></clipPath><path d="M53.7,26H10c-1.1,0-2-0.9-2-2V10c0-1.1,0.9-2,2-2h57c1.1,0,2,0.9,2,2v0.7C68.9,19.1,62.1,26,53.7,26z" class="st0"/></g></g><g><g transform="translate(80.000000, 60.000000) scale(6,6)"><defs><circle id="SVGID_3_" cx="40" cy="40" r="32"/></defs><clipPath id="SVGID_4_"><use xlink:href="#SVGID_3_" style="overflow:visible"/></clipPath><path d="M69.1,72H8.2l0,0V54l0,0h45.7c8.4,0,15.2,6.8,15.2,15.2V72L69.1,72z" class="st1"/></g></g><g><g transform="translate(80.000000, 60.000000) scale(6,6)"><defs><circle id="SVGID_5_" cx="40" cy="40" r="32"/></defs><clipPath id="SVGID_6_"><use xlink:href="#SVGID_5_" style="overflow:visible"/></clipPath><path d="M50.1,49H4.8V31h45.3c5,0,9,4,9,9l0,0C59.1,45,55,49,50.1,49z" class="st2"/></g></g><g><g transform="translate(80.000000, 60.000000) scale(6,6)"><defs><circle id="SVGID_7_" cx="40" cy="40" r="32"/></defs><clipPath id="SVGID_8_"><use xlink:href="#SVGID_7_" style="overflow:visible"/></clipPath><path d="M36,31H6.4v18H36c0.7-2.7,1.1-5.7,1.1-9S36.7,33.7,36,31z" class="st3"/></g></g></g><path d="M23.9,12.3c-5.4,3.2-9.9,8-12.7,13.7h23.6C32.4,20.5,28.6,15.9,23.9,12.3z" class="st4" transform="translate(80.000000, 60.000000) scale(6,6)"/><path d="M24.9,68.2c4.6-3.7,8.3-8.6,10.6-14.2H11.2C14.2,60,19,65,24.9,68.2z" class="st5" transform="translate(80.000000, 60.000000) scale(6,6)"/></g></g></g></svg>