<svg xmlns="http://www.w3.org/2000/svg" xmlns:xlink="http://www.w3.org/1999/xlink" width="64" height="64" version="1.1" viewBox="0 0 64 64"><title>Polls</title><desc>Created with Sketch.</desc><defs><path id="path-1" d="M32,64 C46.0222222,64 53.8173667,64 58.9086889,58.9086889 C64,53.8173667 64,46.0222222 64,32 C64,17.9777778 64,10.1826333 58.9086889,5.09131111 C53.8173667,0 46.0222222,0 32,0 C17.9777778,0 10.1826333,0 5.09131111,5.09131111 C0,10.1826333 0,17.9777778 0,32 C0,46.0222222 0,53.8173667 5.09131111,58.9086889 C10.1826333,64 17.9777778,64 32,64 Z"/><linearGradient id="linearGradient-3" x1="50%" x2="50%" y1="0%" y2="100%"><stop offset="0%" stop-color="#FDFEFF"/><stop offset="100%" stop-color="#FBFCFD" stop-opacity=".9"/></linearGradient><path id="path-4" d="M40,35.7142857 L40,4.28571429 C40,1.91964286 38.0803571,0 35.7142857,0 L4.28571429,0 C1.91964286,0 0,1.91964286 0,4.28571429 L0,35.7142857 C0,38.0803571 1.91964286,40 4.28571429,40 L35.7142857,40 C38.0803571,40 40,38.0803571 40,35.7142857 Z M10,14.2857143 C9.21071429,14.2857143 8.57142857,13.6464286 8.57142857,12.8571429 L8.57142857,10 C8.57142857,9.21071429 9.21071429,8.57142857 10,8.57142857 L21.4285714,8.57142857 C22.2178571,8.57142857 22.8571429,9.21071429 22.8571429,10 L22.8571429,12.8571429 C22.8571429,13.6464286 22.2178571,14.2857143 21.4285714,14.2857143 L10,14.2857143 Z M10,22.8571429 C9.21071429,22.8571429 8.57142857,22.2178571 8.57142857,21.4285714 L8.57142857,18.5714286 C8.57142857,17.7821429 9.21071429,17.1428571 10,17.1428571 L30,17.1428571 C30.7892857,17.1428571 31.4285714,17.7821429 31.4285714,18.5714286 L31.4285714,21.4285714 C31.4285714,22.2178571 30.7892857,22.8571429 30,22.8571429 L10,22.8571429 Z M10,31.4285714 C9.21071429,31.4285714 8.57142857,30.7892857 8.57142857,30 L8.57142857,27.1428571 C8.57142857,26.3535714 9.21071429,25.7142857 10,25.7142857 L15.7142857,25.7142857 C16.5035714,25.7142857 17.1428571,26.3535714 17.1428571,27.1428571 L17.1428571,30 C17.1428571,30.7892857 16.5035714,31.4285714 15.7142857,31.4285714 L10,31.4285714 Z"/><filter id="filter-5" width="110%" height="110%" x="-5%" y="-2.5%" filterUnits="objectBoundingBox"><feOffset dx="0" dy="1" in="SourceAlpha" result="shadowOffsetOuter1"/><feGaussianBlur in="shadowOffsetOuter1" result="shadowBlurOuter1" stdDeviation=".5"/><feColorMatrix in="shadowBlurOuter1" type="matrix" values="0 0 0 0 0 0 0 0 0 0 0 0 0 0 0 0 0 0 0.1 0"/></filter></defs><g id="Page-1" fill="none" fill-rule="evenodd" stroke="none" stroke-width="1"><g id="Artboard" transform="translate(-502.000000, -430.000000)"><g id="Polls" transform="translate(502.000000, 430.000000)"><mask id="mask-2" fill="#fff"><use xlink:href="#path-1"/></mask><use id="Path" fill="#00B356" xlink:href="#path-1"/><g id="poll-h" fill-rule="nonzero" mask="url(#mask-2)"><g id="Shape"><g transform="translate(12.000000, 12.000000)"><use fill="#000" fill-opacity="1" filter="url(#filter-5)" xlink:href="#path-4"/><use fill="url(#linearGradient-3)" xlink:href="#path-4"/></g></g></g></g></g></g></svg>