<svg xmlns="http://www.w3.org/2000/svg" xmlns:xlink="http://www.w3.org/1999/xlink" width="64" height="64" version="1.1" viewBox="0 0 64 64"><title>Timeline</title><desc>Created with Sketch.</desc><defs><path id="path-1" d="M32,64 C46.0222222,64 53.8173667,64 58.9086889,58.9086889 C64,53.8173667 64,46.0222222 64,32 C64,17.9777778 64,10.1826333 58.9086889,5.09131111 C53.8173667,0 46.0222222,0 32,0 C17.9777778,0 10.1826333,0 5.09131111,5.09131111 C0,10.1826333 0,17.9777778 0,32 C0,46.0222222 0,53.8173667 5.09131111,58.9086889 C10.1826333,64 17.9777778,64 32,64 Z"/><linearGradient id="linearGradient-3" x1="50%" x2="50%" y1="0%" y2="100%"><stop offset="0%" stop-color="#FDFEFF"/><stop offset="100%" stop-color="#FBFCFD" stop-opacity=".9"/></linearGradient><path id="path-4" d="M32,12 C20.9516129,12 12,20.9516129 12,32 C12,43.0483871 20.9516129,52 32,52 C43.0483871,52 52,43.0483871 52,32 C52,20.9516129 43.0483871,12 32,12 Z M36.6048387,40.233871 L29.4919355,35.0645161 C29.2419355,34.8790323 29.0967742,34.5887097 29.0967742,34.2822581 L29.0967742,20.7096774 C29.0967742,20.1774194 29.5322581,19.7419355 30.0645161,19.7419355 L33.9354839,19.7419355 C34.4677419,19.7419355 34.9032258,20.1774194 34.9032258,20.7096774 L34.9032258,31.8145161 L40.0241935,35.5403226 C40.4596774,35.8548387 40.5483871,36.4596774 40.233871,36.8951613 L37.9596774,40.0241935 C37.6451613,40.4516129 37.0403226,40.5483871 36.6048387,40.233871 Z"/><filter id="filter-5" width="110%" height="110%" x="-5%" y="-2.5%" filterUnits="objectBoundingBox"><feOffset dx="0" dy="1" in="SourceAlpha" result="shadowOffsetOuter1"/><feGaussianBlur in="shadowOffsetOuter1" result="shadowBlurOuter1" stdDeviation=".5"/><feColorMatrix in="shadowBlurOuter1" type="matrix" values="0 0 0 0 0 0 0 0 0 0 0 0 0 0 0 0 0 0 0.1 0"/></filter></defs><g id="Page-1" fill="none" fill-rule="evenodd" stroke="none" stroke-width="1"><g id="Artboard" transform="translate(-664.000000, -430.000000)"><g id="Timeline" transform="translate(664.000000, 430.000000)"><mask id="mask-2" fill="#fff"><use xlink:href="#path-1"/></mask><use id="Path" fill="#00B356" xlink:href="#path-1"/><g id="Shape" fill-rule="nonzero" mask="url(#mask-2)"><use fill="#000" fill-opacity="1" filter="url(#filter-5)" xlink:href="#path-4"/><use fill="url(#linearGradient-3)" xlink:href="#path-4"/></g></g></g></g></svg>