<svg xmlns="http://www.w3.org/2000/svg" xmlns:svg="http://www.w3.org/2000/svg" xmlns:xlink="http://www.w3.org/1999/xlink" id="svg22" width="606" height="606" version="1.1" viewBox="0 0 606 606"><metadata id="metadata26"/><defs id="defs8"><linearGradient id="linearGradient-1" x1="50%" x2="50%" y1="0%" y2="100%"><stop id="stop2" offset="0%" stop-color="#984f65" stop-opacity="1"/><stop id="stop4" offset="100%" stop-color="#691c35" stop-opacity="1"/></linearGradient><path id="path-2" d="M552.268958,552.268958 C600,504.537813 600,431.458333 600,300 C600,168.541667 600,95.4621875 552.268958,47.7310417 C504.537813,0 431.458333,0 300,0 C168.541667,0 95.4621875,0 47.7310417,47.7310417 C0,95.4621875 0,168.541667 0,300 C0,431.458333 0,504.537813 47.7310417,552.268958 C95.4621875,600 168.541667,600 300,600 C431.458333,600 504.537813,600 552.268958,552.268958 Z"/></defs><g id="Page-1" fill="none" fill-rule="evenodd" stroke="none" stroke-width="1"><g id="una-connect" transform="translate(3.000000, 3.000000)"><g id="Squircle2-Copy-6"><g id="Shape"><use id="use10" fill="#FFF" xlink:href="#path-2"/><use id="use12" fill="url(#linearGradient-1)" stroke="#000" stroke-width="4.04" xlink:href="#path-2"/></g></g><g id="g18"><text style="text-anchor:middle;fill:#fff;stroke:#000;font-size:100px" id="text16" x="50%" y="55%">API</text></g></g></g></svg>