<svg xmlns="http://www.w3.org/2000/svg" xmlns:xlink="http://www.w3.org/1999/xlink" width="606" height="606" version="1.1" viewBox="0 0 606 606"><title>google</title><desc>Created with Sketch.</desc><defs><linearGradient id="linearGradient-1" x1="50%" x2="50%" y1="0%" y2="100%"><stop offset="0%" stop-color="#FFF" stop-opacity=".2"/><stop offset="100%" stop-color="#000" stop-opacity=".2"/></linearGradient><path id="path-2" d="M552.268958,552.268958 C600,504.537813 600,431.458333 600,300 C600,168.541667 600,95.4621875 552.268958,47.7310417 C504.537813,0 431.458333,0 300,0 C168.541667,0 95.4621875,0 47.7310417,47.7310417 C0,95.4621875 0,168.541667 0,300 C0,431.458333 0,504.537813 47.7310417,552.268958 C95.4621875,600 168.541667,600 300,600 C431.458333,600 504.537813,600 552.268958,552.268958 Z"/><path id="path-3" d="M385.455827,163.35 L362.781955,163.35 L288.411654,163.35 L199.530075,163.35 L199.530075,240.4875 L306.550752,240.4875 C296.574248,289.4925 254.854323,317.625 199.530075,317.625 C134.229323,317.625 81.6259398,264.99 81.6259398,199.65 C81.6259398,134.31 134.229323,81.675 199.530075,81.675 C227.645677,81.675 253.040414,91.6575 272.993421,107.9925 L331.038534,49.9125 C295.667293,19.0575 250.319549,0 199.530075,0 C88.8815789,0 0,88.935 0,199.65 C0,310.365 88.8815789,399.3 199.530075,399.3 C299.295113,399.3 389.990602,326.7 389.990602,199.65 C389.990602,187.8525 388.176692,175.1475 385.455827,163.35 L385.455827,163.35 Z"/><path id="path-5" d="M385.455827,163.35 L362.781955,163.35 L288.411654,163.35 L199.530075,163.35 L199.530075,240.4875 L306.550752,240.4875 C296.574248,289.4925 254.854323,317.625 199.530075,317.625 C134.229323,317.625 81.6259398,264.99 81.6259398,199.65 C81.6259398,134.31 134.229323,81.675 199.530075,81.675 C227.645677,81.675 253.040414,91.6575 272.993421,107.9925 L331.038534,49.9125 C295.667293,19.0575 250.319549,0 199.530075,0 C88.8815789,0 0,88.935 0,199.65 C0,310.365 88.8815789,399.3 199.530075,399.3 C299.295113,399.3 389.990602,326.7 389.990602,199.65 C389.990602,187.8525 388.176692,175.1475 385.455827,163.35 L385.455827,163.35 Z"/><path id="path-7" d="M385.455827,163.35 L362.781955,163.35 L288.411654,163.35 L199.530075,163.35 L199.530075,240.4875 L306.550752,240.4875 C296.574248,289.4925 254.854323,317.625 199.530075,317.625 C134.229323,317.625 81.6259398,264.99 81.6259398,199.65 C81.6259398,134.31 134.229323,81.675 199.530075,81.675 C227.645677,81.675 253.040414,91.6575 272.993421,107.9925 L331.038534,49.9125 C295.667293,19.0575 250.319549,0 199.530075,0 C88.8815789,0 0,88.935 0,199.65 C0,310.365 88.8815789,399.3 199.530075,399.3 C299.295113,399.3 389.990602,326.7 389.990602,199.65 C389.990602,187.8525 388.176692,175.1475 385.455827,163.35 L385.455827,163.35 Z"/><path id="path-9" d="M385.455827,163.35 L362.781955,163.35 L288.411654,163.35 L199.530075,163.35 L199.530075,240.4875 L306.550752,240.4875 C296.574248,289.4925 254.854323,317.625 199.530075,317.625 C134.229323,317.625 81.6259398,264.99 81.6259398,199.65 C81.6259398,134.31 134.229323,81.675 199.530075,81.675 C227.645677,81.675 253.040414,91.6575 272.993421,107.9925 L331.038534,49.9125 C295.667293,19.0575 250.319549,0 199.530075,0 C88.8815789,0 0,88.935 0,199.65 C0,310.365 88.8815789,399.3 199.530075,399.3 C299.295113,399.3 389.990602,326.7 389.990602,199.65 C389.990602,187.8525 388.176692,175.1475 385.455827,163.35 L385.455827,163.35 Z"/></defs><g id="Page-1" fill="none" fill-rule="evenodd" stroke="none" stroke-width="1"><g id="google" transform="translate(3.000000, 3.000000)"><g id="Squircle2-Copy-6"><g id="Shape"><use fill="#FFF" xlink:href="#path-2"/><use fill="url(#linearGradient-1)" stroke="#000" stroke-width="4.04" xlink:href="#path-2"/></g></g><g id="Google_-G-_Logo" opacity=".9" transform="translate(105.000000, 100.000000)"><g id="Group"><g id="Clipped"><mask id="mask-4" fill="#fff"><use xlink:href="#path-3"/></mask><polygon id="Shape" fill="#FBBC05" points="-18.139 317.625 -18.139 81.675 136.043 199.65" mask="url(#mask-4)"/></g><g id="Clipped"><mask id="mask-6" fill="#fff"><use xlink:href="#path-5"/></mask><polygon id="Shape" fill="#EA4335" points="-18.139 81.675 136.043 199.65 199.53 144.292 417.199 108.9 417.199 -18.15 -18.139 -18.15" mask="url(#mask-6)"/></g><g id="Clipped"><mask id="mask-8" fill="#fff"><use xlink:href="#path-7"/></mask><polygon id="Shape" fill="#34A853" points="-18.139 317.625 253.947 108.9 325.597 117.975 417.199 -18.15 417.199 417.45 -18.139 417.45" mask="url(#mask-8)"/></g><g id="Clipped"><mask id="mask-10" fill="#fff"><use xlink:href="#path-9"/></mask><polygon id="Shape" fill="#4285F4" points="417.199 417.45 136.043 199.65 99.765 172.425 417.199 81.675" mask="url(#mask-10)"/></g></g></g></g></g></svg>