<svg xmlns="http://www.w3.org/2000/svg" xmlns:xlink="http://www.w3.org/1999/xlink" width="600" height="600" version="1.1" viewBox="0 0 600 600"><title>Group 2 Copy 29</title><desc>Created with Sketch.</desc><defs><linearGradient id="linearGradient-1" x1="50%" x2="50%" y1="0%" y2="100%"><stop offset="0%" stop-color="#FFF" stop-opacity=".2"/><stop offset="100%" stop-color="#000" stop-opacity=".139"/></linearGradient><linearGradient id="linearGradient-2" x1="50%" x2="50%" y1="0%" y2="100%"><stop offset="0%" stop-color="#FFF"/><stop offset="35.243%" stop-color="#F6F6F6"/><stop offset="100%" stop-color="#E5E5E5"/></linearGradient><path id="path-3" d="M0,0.192307692 L0,40.1923077 L40,40.1923077 L112.002885,186.040385 L81.8990385,235.034615 C78.9009615,240.034615 76.8990385,247.036538 76.8990385,254.039423 C76.8990385,280.818269 95.1923077,294.039423 120,294.039423 L353.846154,294.039423 L353.846154,255.577885 L124.897115,255.577885 C121.899038,255.577885 119.897115,253.575962 119.897115,250.577885 C119.897115,249.581731 122.019231,245.577885 122.019231,245.577885 L142.001923,214.039423 L290.996154,214.039423 C305.997115,214.039423 319.003846,206.042308 325.996154,193.043269 L397.998077,69.1971154 C399.1875,66.8307692 400,63.1913462 400,59.1980769 C400,48.1923077 390.996154,40.1932692 380,40.1932692 L84.0038462,40.1932692 L65,0.192307692 L0,0.192307692 L0,0.192307692 Z"/><filter id="filter-4" width="200%" height="200%" x="-50%" y="-50%" filterUnits="objectBoundingBox"><feMorphology in="SourceAlpha" operator="dilate" radius="1" result="shadowSpreadOuter1"/><feOffset dx="0" dy="2" in="shadowSpreadOuter1" result="shadowOffsetOuter1"/><feColorMatrix in="shadowOffsetOuter1" type="matrix" values="0 0 0 0 0 0 0 0 0 0 0 0 0 0 0 0 0 0 0.08 0"/></filter><path id="path-5" d="M313.845192,314.038462 C291.843269,314.038462 273.845192,332.036538 273.845192,354.039423 C273.845192,376.041346 291.843269,394.039423 313.845192,394.039423 C335.847115,394.039423 353.846154,376.040385 353.846154,354.038462 C353.846154,332.035577 335.847115,314.038462 313.845192,314.038462 L313.845192,314.038462 Z"/><filter id="filter-6" width="200%" height="200%" x="-50%" y="-50%" filterUnits="objectBoundingBox"><feMorphology in="SourceAlpha" operator="dilate" radius="1" result="shadowSpreadOuter1"/><feOffset dx="0" dy="2" in="shadowSpreadOuter1" result="shadowOffsetOuter1"/><feColorMatrix in="shadowOffsetOuter1" type="matrix" values="0 0 0 0 0 0 0 0 0 0 0 0 0 0 0 0 0 0 0.08 0"/></filter><path id="path-7" d="M116.923077,314.038462 C94.9211538,314.038462 76.9230769,332.036538 76.9230769,354.039423 C76.9230769,376.041346 94.9211538,394.039423 116.923077,394.039423 C138.925,394.039423 156.924038,376.041346 156.924038,354.039423 C156.923077,332.035577 138.924038,314.038462 116.923077,314.038462 L116.923077,314.038462 Z"/><filter id="filter-8" width="200%" height="200%" x="-50%" y="-50%" filterUnits="objectBoundingBox"><feMorphology in="SourceAlpha" operator="dilate" radius="1" result="shadowSpreadOuter1"/><feOffset dx="0" dy="2" in="shadowSpreadOuter1" result="shadowOffsetOuter1"/><feColorMatrix in="shadowOffsetOuter1" type="matrix" values="0 0 0 0 0 0 0 0 0 0 0 0 0 0 0 0 0 0 0.08 0"/></filter></defs><g id="Page-1" fill="none" fill-rule="evenodd" stroke="none" stroke-width="1"><g id="Group-2-Copy-29"><path id="path" fill="#2BAF92" d="M552.268958,552.268958 C600,504.537813 600,431.458333 600,300 C600,168.541667 600,95.4621875 552.268958,47.7310417 C504.537813,0 431.458333,0 300,0 C168.541667,0 95.4621875,0 47.7310417,47.7310417 C0,95.4621875 0,168.541667 0,300 C0,431.458333 0,504.537813 47.7310417,552.268958 C95.4621875,600 168.541667,600 300,600 C431.458333,600 504.537813,600 552.268958,552.268958 L552.268958,552.268958 Z"/><path id="path-copy" fill="url(#linearGradient-1)" d="M552.268958,552.268958 C600,504.537813 600,431.458333 600,300 C600,168.541667 600,95.4621875 552.268958,47.7310417 C504.537813,0 431.458333,0 300,0 C168.541667,0 95.4621875,0 47.7310417,47.7310417 C0,95.4621875 0,168.541667 0,300 C0,431.458333 0,504.537813 47.7310417,552.268958 C95.4621875,600 168.541667,600 300,600 C431.458333,600 504.537813,600 552.268958,552.268958 L552.268958,552.268958 Z"/><g id="android-cart" transform="translate(100.000000, 115.000000)"><g id="Layer_1"><g id="Shape"><use fill="#000" fill-opacity="1" filter="url(#filter-4)" xlink:href="#path-3"/><use fill="url(#linearGradient-2)" fill-rule="evenodd" xlink:href="#path-3"/></g><g id="Path" opacity=".5"><use fill="#000" fill-opacity="1" filter="url(#filter-6)" xlink:href="#path-5"/><use fill="url(#linearGradient-2)" fill-rule="evenodd" xlink:href="#path-5"/></g><g id="Path" opacity=".5"><use fill="#000" fill-opacity="1" filter="url(#filter-8)" xlink:href="#path-7"/><use fill="url(#linearGradient-2)" fill-rule="evenodd" xlink:href="#path-7"/></g></g></g></g></g></svg>