<svg xmlns="http://www.w3.org/2000/svg" xmlns:xlink="http://www.w3.org/1999/xlink" width="600" height="600" version="1.1" viewBox="0 0 600 600"><title>Group 2 Copy 17</title><desc>Created with Sketch.</desc><defs><linearGradient id="linearGradient-1" x1="50%" x2="50%" y1="0%" y2="100%"><stop offset="0%" stop-color="#FFF" stop-opacity=".2"/><stop offset="100%" stop-color="#000" stop-opacity=".139"/></linearGradient><linearGradient id="linearGradient-2" x1="50%" x2="50%" y1="0%" y2="100%"><stop offset="0%" stop-color="#FFF"/><stop offset="35.243%" stop-color="#F6F6F6"/><stop offset="100%" stop-color="#E5E5E5"/></linearGradient><path id="path-3" d="M224.802885,259.495192 C222.427885,258.024038 218.225962,255.817308 208.817308,255.817308 L102.764423,255.817308 C71.0673077,255.817308 43.8461538,234.485577 43.8461538,207.432692 L43.8461538,125.048077 L42.2019231,125.048077 C18.1778846,125.048077 0,141.802885 0,162.235577 L0,267.586538 C0,288.019231 19.5480769,300.769231 43.5721154,300.769231 L58.4615385,300.769231 L58.4615385,340 L106.966346,303.221154 C108.701923,302.076923 111.807692,300.769231 119.024038,300.769231 L201.052885,300.769231 C222.0625,300.769231 244.350962,291.451923 248.461538,274.615385 L224.802885,259.495192 L224.802885,259.495192 Z"/><filter id="filter-4" width="200%" height="200%" x="-50%" y="-50%" filterUnits="objectBoundingBox"><feMorphology in="SourceAlpha" operator="dilate" radius="1" result="shadowSpreadOuter1"/><feOffset dx="0" dy="2" in="shadowSpreadOuter1" result="shadowOffsetOuter1"/><feColorMatrix in="shadowOffsetOuter1" type="matrix" values="0 0 0 0 0 0 0 0 0 0 0 0 0 0 0 0 0 0 0.08 0"/></filter><path id="path-5" d="M322.451923,0 L123.956731,0 C92.2596154,0 73.0769231,21.9038462 73.0769231,48.875 L73.0769231,105.841346 L73.0769231,186.346154 C73.0769231,213.399038 98.6538462,235.384615 130.350962,235.384615 L222.701923,235.384615 C232.201923,235.384615 236.403846,237.264423 238.6875,238.817308 L306.923077,287.692308 L306.923077,235.384615 L322.451923,235.384615 C354.240385,235.384615 380,213.399038 380,186.427885 L380,48.875 C380,21.9038462 354.240385,0 322.451923,0 L322.451923,0 Z"/><filter id="filter-6" width="200%" height="200%" x="-50%" y="-50%" filterUnits="objectBoundingBox"><feMorphology in="SourceAlpha" operator="dilate" radius="1" result="shadowSpreadOuter1"/><feOffset dx="0" dy="2" in="shadowSpreadOuter1" result="shadowOffsetOuter1"/><feColorMatrix in="shadowOffsetOuter1" type="matrix" values="0 0 0 0 0 0 0 0 0 0 0 0 0 0 0 0 0 0 0.08 0"/></filter></defs><g id="Page-1" fill="none" fill-rule="evenodd" stroke="none" stroke-width="1"><g id="Group-2-Copy-17"><path id="path" fill="#2BAF92" d="M552.268958,552.268958 C600,504.537813 600,431.458333 600,300 C600,168.541667 600,95.4621875 552.268958,47.7310417 C504.537813,0 431.458333,0 300,0 C168.541667,0 95.4621875,0 47.7310417,47.7310417 C0,95.4621875 0,168.541667 0,300 C0,431.458333 0,504.537813 47.7310417,552.268958 C95.4621875,600 168.541667,600 300,600 C431.458333,600 504.537813,600 552.268958,552.268958 L552.268958,552.268958 Z"/><path id="path-copy" fill="url(#linearGradient-1)" d="M552.268958,552.268958 C600,504.537813 600,431.458333 600,300 C600,168.541667 600,95.4621875 552.268958,47.7310417 C504.537813,0 431.458333,0 300,0 C168.541667,0 95.4621875,0 47.7310417,47.7310417 C0,95.4621875 0,168.541667 0,300 C0,431.458333 0,504.537813 47.7310417,552.268958 C95.4621875,600 168.541667,600 300,600 C431.458333,600 504.537813,600 552.268958,552.268958 L552.268958,552.268958 Z"/><g id="chatboxes" transform="translate(110.000000, 134.000000)"><g id="Layer_1"><g id="Group"><g id="Shape" opacity=".5"><use fill="#000" fill-opacity="1" filter="url(#filter-4)" xlink:href="#path-3"/><use fill="url(#linearGradient-2)" fill-rule="evenodd" xlink:href="#path-3"/></g><g id="Shape"><use fill="#000" fill-opacity="1" filter="url(#filter-6)" xlink:href="#path-5"/><use fill="url(#linearGradient-2)" fill-rule="evenodd" xlink:href="#path-5"/></g></g></g></g></g></g></svg>