<svg xmlns="http://www.w3.org/2000/svg" xmlns:xlink="http://www.w3.org/1999/xlink" width="600" height="600" version="1.1" viewBox="0 0 600 600"><title>Group 2 Copy 16</title><desc>Created with Sketch.</desc><defs><linearGradient id="linearGradient-1" x1="50%" x2="50%" y1="0%" y2="100%"><stop offset="0%" stop-color="#FFF" stop-opacity=".2"/><stop offset="100%" stop-color="#000" stop-opacity=".139"/></linearGradient><linearGradient id="linearGradient-2" x1="50%" x2="50%" y1="0%" y2="100%"><stop offset="0%" stop-color="#FFF"/><stop offset="35.243%" stop-color="#F6F6F6"/><stop offset="100%" stop-color="#E5E5E5"/></linearGradient><path id="path-3" d="M214.285714,185.714286 L185.714286,185.714286 L185.714286,178.571429 L0,178.571429 L0,335.714286 C0,339.642857 2.94642857,342.857143 6.96428571,342.857143 L393.125,342.857143 C397.053571,342.857143 400,339.642857 400,335.714286 L400,178.571429 L214.285714,178.571429 L214.285714,185.714286 L214.285714,185.714286 Z"/><filter id="filter-4" width="200%" height="200%" x="-50%" y="-50%" filterUnits="objectBoundingBox"><feMorphology in="SourceAlpha" operator="dilate" radius="1" result="shadowSpreadOuter1"/><feOffset dx="0" dy="2" in="shadowSpreadOuter1" result="shadowOffsetOuter1"/><feColorMatrix in="shadowOffsetOuter1" type="matrix" values="0 0 0 0 0 0 0 0 0 0 0 0 0 0 0 0 0 0 0.08 0"/></filter><path id="path-5" d="M393.035714,71.4285714 L285.714286,71.4285714 L285.714286,44.0178571 C284.821429,18.8392857 266.339286,0 240,0 L160,0 C133.75,0 115.178571,18.8392857 114.285714,44.0178571 L114.285714,71.4285714 L6.96428571,71.4285714 C3.03571429,71.4285714 0,74.6428571 0,78.5714286 L0,164.285714 L185.714286,164.285714 L185.714286,157.142857 L214.285714,157.142857 L214.285714,164.285714 L400,164.285714 L400,78.5714286 C400,74.6428571 397.053571,71.4285714 393.035714,71.4285714 L393.035714,71.4285714 Z M257.142857,46.6071429 L257.142857,47.5 L257.142857,71.4285714 L142.857143,71.4285714 L142.857143,47.5 L142.857143,46.6071429 L142.857143,45.7142857 C142.857143,37.0535714 150.535714,28.5714286 159.642857,28.5714286 L240.357143,28.5714286 C249.375,28.5714286 257.142857,36.9642857 257.142857,45.7142857 C257.142857,46.0714286 257.142857,46.3392857 257.142857,46.6071429 L257.142857,46.6071429 Z"/><filter id="filter-6" width="200%" height="200%" x="-50%" y="-50%" filterUnits="objectBoundingBox"><feMorphology in="SourceAlpha" operator="dilate" radius="1" result="shadowSpreadOuter1"/><feOffset dx="0" dy="2" in="shadowSpreadOuter1" result="shadowOffsetOuter1"/><feColorMatrix in="shadowOffsetOuter1" type="matrix" values="0 0 0 0 0 0 0 0 0 0 0 0 0 0 0 0 0 0 0.08 0"/></filter></defs><g id="Page-1" fill="none" fill-rule="evenodd" stroke="none" stroke-width="1"><g id="Group-2-Copy-16"><path id="path" fill="#F6A623" d="M552.268958,552.268958 C600,504.537813 600,431.458333 600,300 C600,168.541667 600,95.4621875 552.268958,47.7310417 C504.537813,0 431.458333,0 300,0 C168.541667,0 95.4621875,0 47.7310417,47.7310417 C0,95.4621875 0,168.541667 0,300 C0,431.458333 0,504.537813 47.7310417,552.268958 C95.4621875,600 168.541667,600 300,600 C431.458333,600 504.537813,600 552.268958,552.268958 L552.268958,552.268958 Z"/><path id="path-copy" fill="url(#linearGradient-1)" d="M552.268958,552.268958 C600,504.537813 600,431.458333 600,300 C600,168.541667 600,95.4621875 552.268958,47.7310417 C504.537813,0 431.458333,0 300,0 C168.541667,0 95.4621875,0 47.7310417,47.7310417 C0,95.4621875 0,168.541667 0,300 C0,431.458333 0,504.537813 47.7310417,552.268958 C95.4621875,600 168.541667,600 300,600 C431.458333,600 504.537813,600 552.268958,552.268958 L552.268958,552.268958 Z"/><g id="briefcase" transform="translate(100.000000, 121.000000)"><g id="Layer_1"><g id="Group"><g id="Shape" opacity=".5"><use fill="#000" fill-opacity="1" filter="url(#filter-4)" xlink:href="#path-3"/><use fill="url(#linearGradient-2)" fill-rule="evenodd" xlink:href="#path-3"/></g><g id="Shape"><use fill="#000" fill-opacity="1" filter="url(#filter-6)" xlink:href="#path-5"/><use fill="url(#linearGradient-2)" fill-rule="evenodd" xlink:href="#path-5"/></g></g></g></g></g></g></svg>