<svg xmlns="http://www.w3.org/2000/svg" xmlns:xlink="http://www.w3.org/1999/xlink" width="600" height="600" version="1.1" viewBox="0 0 600 600"><title>Group 2 Copy 31</title><desc>Created with Sketch.</desc><defs><linearGradient id="linearGradient-1" x1="50%" x2="50%" y1="0%" y2="100%"><stop offset="0%" stop-color="#FFF"/><stop offset="100%" stop-color="#FFF"/></linearGradient><path id="path-2" d="M552.268958,552.268958 C600,504.537813 600,431.458333 600,300 C600,168.541667 600,95.4621875 552.268958,47.7310417 C504.537813,0 431.458333,0 300,0 C168.541667,0 95.4621875,0 47.7310417,47.7310417 C0,95.4621875 0,168.541667 0,300 C0,431.458333 0,504.537813 47.7310417,552.268958 C95.4621875,600 168.541667,600 300,600 C431.458333,600 504.537813,600 552.268958,552.268958 L552.268958,552.268958 Z"/><mask id="mask-3" width="600" height="600" x="0" y="0" fill="#fff" maskContentUnits="userSpaceOnUse" maskUnits="objectBoundingBox"><use xlink:href="#path-2"/></mask><linearGradient id="linearGradient-4" x1="50%" x2="50%" y1="0%" y2="100%"><stop offset="0%" stop-color="#FFF" stop-opacity=".2"/><stop offset="100%" stop-color="#000" stop-opacity=".139"/></linearGradient></defs><g id="Page-1" fill="none" fill-rule="evenodd" stroke="none" stroke-width="1"><g id="Group-2-Copy-31"><use id="path-copy-20" fill="url(#linearGradient-1)" stroke="#6F6E6E" stroke-width="8" mask="url(#mask-3)" xlink:href="#path-2"/><g id="Group-2" transform="translate(59.000000, 217.000000)"><g id="logo" transform="translate(0.000000, 0.789474)"><g id="Slice-1"><g id="Page-1"><g id="Logo"><g id="mark"><polygon id="Fill-17" fill="#FFCF01" points="70.905 164.003 106.65 144.364 36.389 103.063 .268 124.557"/><polygon id="Fill-18" fill="#40BEB4" points="71.165 123.588 70.905 164.002 142.222 124.895 142.222 84.138"/><polygon id="Fill-19" fill="#01A5DB" points="142.223 84.138 142.223 124.895 71.166 83.997 71.501 42.482"/><polygon id="Fill-20" fill="#EF3F2D" points="71.165 83.843 71.165 123.588 .191 81.731 .157 42.426"/><polygon id="Fill-21" fill="#F16625" points=".158 42.426 .158 81.731 71.5 42.663 71.166 .733"/><polygon id="Fill-22" fill="#FFCF01" points="107.082 63.44 141.879 41.912 71.165 .734 35.556 21.675"/><polygon id="Fill-23" fill="#00A1AF" points="142.223 84.138 106.181 104.169 142.223 124.895"/><polygon id="Fill-24" fill="#5DA73C" points="71.165 123.588 70.905 164.002 106.651 144.364"/><polygon id="Fill-25" fill="#ED1F2E" points=".158 42.426 .191 81.731 35.444 62.975"/><polygon id="Fill-26" fill="#F0532D" points="71.165 .734 71.5 42.663 35.556 21.674"/><polygon id="Fill-27" fill="#FEBE10" points="71.165 123.588 35.583 144.274 70.905 164.002"/><polygon id="Fill-28" fill="#FEBE10" points="71.5 42.663 108.05 22.213 71.165 .734"/></g></g></g></g></g><g id="logosvg-animated-copy" transform="translate(317.378587, 0.000000)"><g id="Group"><g id="inner"><g id="XMLID_5_"><path id="Shape" fill="#2AB191" d="M33.5078903,82.5110674 L33.5078903,82.5110674 C33.5078903,55.4002881 55.4238619,33.367113 82.4565788,33.367113 C102.063223,33.367113 119.088853,44.9730653 126.786612,61.6566218 L126.786612,13.2833751 C114.107951,4.98693264 98.7577146,0.181343005 82.3660169,0.181343005 C37.0398031,0.181343005 0.271685597,37.1299803 0.271685597,82.5110674 C0.271685597,109.485839 13.1314705,133.468452 33.5078903,148.519921 L33.5078903,82.5110674 Z"/><path id="Shape" fill="#4990E2" d="M131.314705,16.5022135 L131.314705,82.5110674 C131.314705,109.621847 109.398734,131.655022 82.3660169,131.655022 C62.759373,131.655022 45.7337422,120.049069 38.0359836,103.365513 L38.0359836,151.73876 C50.7146448,160.035202 66.0648811,164.840792 82.4565788,164.840792 C127.782793,164.840792 164.55091,127.93749 164.55091,82.5110674 C164.55091,55.5362954 151.691125,31.5536829 131.314705,16.5022135 Z"/></g></g><g id="outer" transform="translate(0.000000, 0.453358)"><path id="Shape" fill="#4990E2" d="M31.1985628,12.5580031 C27.5308072,5.75764042 14.4898985,-0.997386529 0,0.181343005 L0,56.4883461 C5.43371195,38.6713959 16.5728214,23.3479119 31.1985628,12.5580031 Z"/><path id="Shape" fill="#E66" d="M133.624033,151.557417 C137.291789,158.357779 150.242135,165.112806 164.822596,163.934077 L164.822596,107.627074 C159.298322,125.444024 148.249774,140.767508 133.624033,151.557417 Z"/></g></g></g><g id="arrow-right-c" fill="#000" opacity=".1" transform="translate(178.103493, 42.080644)"><g id="Layer_1"><path id="Shape" d="M73.1367816,2.83067165 L103.36183,34.4498763 C105.169908,36.1964609 106.073948,38.5754297 106.073948,41.1953066 C106.073948,43.8151836 105.169908,46.1640388 103.36183,47.940737 L73.1367816,79.6803957 C69.5507589,83.4445868 63.7046379,83.4445868 60.1186153,79.6803957 C56.5325926,75.9162047 56.5325926,69.833272 60.1186153,66.069081 L74.6435138,50.8918627 L9.25133578,50.8918627 C4.12844626,50.8918627 0,46.5856282 0,41.2555337 C0,35.9254392 4.12844626,31.6192047 9.22120114,31.6192047 L74.6133791,31.6192047 L60.0884806,16.4419864 C56.502458,12.6777954 56.502458,6.59486269 60.0884806,2.83067165 C63.7046379,-0.933519376 69.5206243,-0.933519376 73.1367816,2.83067165 Z"/></g></g></g><path id="path-copy" fill="url(#linearGradient-4)" d="M600,300 C600,168.541667 600,95.4621875 552.268958,47.7310417 C504.537813,0 431.458333,0 300,0 C168.541667,0 95.4621875,0 47.7310417,47.7310417 C0,95.4621875 0,168.541667 0,300 C0,431.458333 0,504.537813 47.7310417,552.268958 C95.4621875,600 168.541667,600 300,600 C431.458333,600 504.537813,600 552.268958,552.268958 C600,504.537813 600,431.458333 600,300 Z"/></g></g></svg>