<svg xmlns="http://www.w3.org/2000/svg" xmlns:xlink="http://www.w3.org/1999/xlink" width="64" height="64" version="1.1" viewBox="0 0 64 64"><title>lucid</title><desc>Created with Sketch.</desc><defs><path id="path-1" d="M32,64 C46.0222222,64 53.8173667,64 58.9086889,58.9086889 C64,53.8173667 64,46.0222222 64,32 C64,17.9777778 64,10.1826333 58.9086889,5.09131111 C53.8173667,0 46.0222222,0 32,0 C17.9777778,0 10.1826333,0 5.09131111,5.09131111 C0,10.1826333 0,17.9777778 0,32 C0,46.0222222 0,53.8173667 5.09131111,58.9086889 C10.1826333,64 17.9777778,64 32,64 Z"/><linearGradient id="linearGradient-3" x1="50%" x2="50%" y1="0%" y2="100%"><stop offset="0%" stop-color="#FDFEFF"/><stop offset="100%" stop-color="#FBFCFD" stop-opacity=".9"/></linearGradient><path id="path-4" d="M20,0 C8.95403226,0 0,8.95403226 0,20 C0,31.0459677 8.95403226,40 20,40 C31.0459677,40 40,31.0459677 40,20 C40,8.95403226 31.0459677,0 20,0 Z M20,34.8387097 C11.7991935,34.8387097 5.16129032,28.2024194 5.16129032,20 C5.16129032,11.7991935 11.7975806,5.16129032 20,5.16129032 C28.2008065,5.16129032 34.8387097,11.7975806 34.8387097,20 C34.8387097,28.2008065 28.2024194,34.8387097 20,34.8387097 Z M20,9.67741935 C14.2991935,9.67741935 9.67741935,14.2991935 9.67741935,20 C9.67741935,25.7008065 14.2991935,30.3225806 20,30.3225806 C25.7008065,30.3225806 30.3225806,25.7008065 30.3225806,20 C30.3225806,14.2991935 25.7008065,9.67741935 20,9.67741935 Z M20,25.1612903 C17.1540323,25.1612903 14.8387097,22.8459677 14.8387097,20 C14.8387097,17.1540323 17.1540323,14.8387097 20,14.8387097 C22.8459677,14.8387097 25.1612903,17.1540323 25.1612903,20 C25.1612903,22.8459677 22.8459677,25.1612903 20,25.1612903 Z"/><filter id="filter-5" width="110%" height="110%" x="-5%" y="-2.5%" filterUnits="objectBoundingBox"><feOffset dx="0" dy="1" in="SourceAlpha" result="shadowOffsetOuter1"/><feGaussianBlur in="shadowOffsetOuter1" result="shadowBlurOuter1" stdDeviation=".5"/><feColorMatrix in="shadowBlurOuter1" type="matrix" values="0 0 0 0 0 0 0 0 0 0 0 0 0 0 0 0 0 0 0.1 0"/></filter></defs><g id="Page-1" fill="none" fill-rule="evenodd" stroke="none" stroke-width="1"><g id="Artboard" transform="translate(-421.000000, -676.000000)"><g id="lucid" transform="translate(421.000000, 676.000000)"><mask id="mask-2" fill="#fff"><use xlink:href="#path-1"/></mask><use id="Path" fill="#94B0D3" xlink:href="#path-1"/><g id="bullseye" fill-rule="nonzero" mask="url(#mask-2)"><g id="Shape"><g transform="translate(12.000000, 12.000000)"><use fill="#000" fill-opacity="1" filter="url(#filter-5)" xlink:href="#path-4"/><use fill="url(#linearGradient-3)" xlink:href="#path-4"/></g></g></g></g></g></g></svg>