<svg xmlns="http://www.w3.org/2000/svg" xmlns:xlink="http://www.w3.org/1999/xlink" width="64" height="64" version="1.1" viewBox="0 0 64 64"><title>decorous</title><desc>Created with Sketch.</desc><defs><path id="path-1" d="M32,64 C46.0222222,64 53.8173667,64 58.9086889,58.9086889 C64,53.8173667 64,46.0222222 64,32 C64,17.9777778 64,10.1826333 58.9086889,5.09131111 C53.8173667,0 46.0222222,0 32,0 C17.9777778,0 10.1826333,0 5.09131111,5.09131111 C0,10.1826333 0,17.9777778 0,32 C0,46.0222222 0,53.8173667 5.09131111,58.9086889 C10.1826333,64 17.9777778,64 32,64 Z"/><linearGradient id="linearGradient-3" x1="50%" x2="50%" y1="0%" y2="100%"><stop offset="0%" stop-color="#FDFEFF"/><stop offset="100%" stop-color="#FBFCFD" stop-opacity=".9"/></linearGradient><path id="path-4" d="M20.0009709,12.5 C15.8679578,12.5 12.5006068,15.8671875 12.5006068,20 C12.5006068,24.1328125 15.8679578,27.5 20.0009709,27.5 C24.1339841,27.5 27.501335,24.1328125 27.501335,20 C27.501335,15.8671875 24.1339841,12.5 20.0009709,12.5 Z M39.2519055,18.7890625 L31.8531088,15.09375 L34.4704233,7.25 C34.8220029,6.1875 33.8141415,5.1796875 32.7594028,5.5390625 L24.915272,8.15625 L21.2119672,0.75 C20.7119429,-0.25 19.2899989,-0.25 18.7899746,0.75 L15.0944828,8.1484375 L7.24253908,5.53125 C6.1799875,5.1796875 5.17212608,6.1875 5.53151852,7.2421875 L8.14883308,15.0859375 L0.75003641,18.7890625 C-0.250012137,19.2890625 -0.250012137,20.7109375 0.75003641,21.2109375 L8.14883308,24.90625 L5.53151852,32.7578125 C5.17993896,33.8203125 6.18780038,34.828125 7.24253908,34.46875 L15.0866699,31.8515625 L18.7821618,39.25 C19.282186,40.25 20.7041301,40.25 21.2041543,39.25 L24.8996462,31.8515625 L32.743777,34.46875 C33.8063286,34.8203125 34.81419,33.8125 34.4547976,32.7578125 L31.837483,24.9140625 L39.2362797,21.21875 C40.251954,20.7109375 40.251954,19.2890625 39.2519055,18.7890625 Z M27.0716267,27.0703125 C23.1729999,30.96875 16.8289419,30.96875 12.9303152,27.0703125 C9.03168844,23.171875 9.03168844,16.828125 12.9303152,12.9296875 C16.8289419,9.03125 23.1729999,9.03125 27.0716267,12.9296875 C30.9702534,16.828125 30.9702534,23.171875 27.0716267,27.0703125 Z"/><filter id="filter-5" width="110%" height="110%" x="-5%" y="-2.5%" filterUnits="objectBoundingBox"><feOffset dx="0" dy="1" in="SourceAlpha" result="shadowOffsetOuter1"/><feGaussianBlur in="shadowOffsetOuter1" result="shadowBlurOuter1" stdDeviation=".5"/><feColorMatrix in="shadowBlurOuter1" type="matrix" values="0 0 0 0 0 0 0 0 0 0 0 0 0 0 0 0 0 0 0.1 0"/></filter></defs><g id="Page-1" fill="none" fill-rule="evenodd" stroke="none" stroke-width="1"><g id="Artboard" transform="translate(-340.000000, -676.000000)"><g id="decorous" transform="translate(340.000000, 676.000000)"><mask id="mask-2" fill="#fff"><use xlink:href="#path-1"/></mask><use id="Path" fill="#94B0D3" xlink:href="#path-1"/><g id="sun" fill-rule="nonzero" mask="url(#mask-2)"><g id="Shape"><g transform="translate(12.000000, 12.000000)"><use fill="#000" fill-opacity="1" filter="url(#filter-5)" xlink:href="#path-4"/><use fill="url(#linearGradient-3)" xlink:href="#path-4"/></g></g></g></g></g></g></svg>