<svg xmlns="http://www.w3.org/2000/svg" xmlns:xlink="http://www.w3.org/1999/xlink" width="600" height="600" version="1.1" viewBox="0 0 600 600"><title>Group 2 Copy 8</title><desc>Created with Sketch.</desc><defs><linearGradient id="linearGradient-1" x1="50%" x2="50%" y1="0%" y2="100%"><stop offset="0%" stop-color="#FFF" stop-opacity=".2"/><stop offset="100%" stop-color="#000" stop-opacity=".139"/></linearGradient><linearGradient id="linearGradient-2" x1=".03%" x2="100%" y1="42.497%" y2="42.497%"><stop offset="0%" stop-color="#FFF" stop-opacity=".298"/><stop offset="50.052%" stop-color="#FFF" stop-opacity=".705"/><stop offset="100%" stop-color="#FFF" stop-opacity=".911"/></linearGradient><path id="path-3" d="M396,206.250917 C376.5025,206.250917 359.978667,219.083333 354.203667,236.5 L318.58475,236.5 L292.587167,158.201083 C290.5925,152.194167 284.976083,148.158083 278.669417,148.158083 C278.56675,148.158083 278.464083,148.158083 278.362333,148.16175 C271.931,148.294667 266.338417,152.602083 264.567417,158.784083 L223.790417,301.107583 L175.800167,13.17525 C174.657083,6.31858333 168.971917,0 161.333333,0 C153.69475,0 148.781417,5.29466667 147.102083,12.0404167 L91.2046667,236.5 L0,236.5 L0,265.832417 L102.666667,265.832417 C109.402333,265.832417 115.270833,261.246333 116.897917,254.709583 L158.48525,87.714 L205.53225,369.992333 C206.658833,376.754583 212.312833,380.919 219.157583,381.307667 C219.439917,381.324167 219.720417,381.333333 220,381.333333 C226.505583,381.333333 232.288833,377.94075 234.09925,371.622167 L279.697917,212.47325 L294.0795,255.787583 C296.071417,261.785333 301.6805,265.832417 308,265.832417 L354.849,265.832417 C361.141917,282.332417 377.18725,294.25 396,294.25 C420.30175,294.25 440,273.632333 440,249.333333 C440,225.033417 420.30175,206.250917 396,206.250917 L396,206.250917 Z"/><filter id="filter-4" width="200%" height="200%" x="-50%" y="-50%" filterUnits="objectBoundingBox"><feMorphology in="SourceAlpha" operator="dilate" radius="1" result="shadowSpreadOuter1"/><feOffset dx="0" dy="2" in="shadowSpreadOuter1" result="shadowOffsetOuter1"/><feColorMatrix in="shadowOffsetOuter1" type="matrix" values="0 0 0 0 0 0 0 0 0 0 0 0 0 0 0 0 0 0 0.2 0"/></filter></defs><g id="Page-1" fill="none" fill-rule="evenodd" stroke="none" stroke-width="1"><g id="Group-2-Copy-8"><path id="path-copy-11" fill="#686868" d="M552.268958,552.268958 C600,504.537813 600,431.458333 600,300 C600,168.541667 600,95.4621875 552.268958,47.7310417 C504.537813,0 431.458333,0 300,0 C168.541667,0 95.4621875,0 47.7310417,47.7310417 C0,95.4621875 0,168.541667 0,300 C0,431.458333 0,504.537813 47.7310417,552.268958 C95.4621875,600 168.541667,600 300,600 C431.458333,600 504.537813,600 552.268958,552.268958 L552.268958,552.268958 Z"/><path id="path-copy" fill="url(#linearGradient-1)" d="M552.268958,552.268958 C600,504.537813 600,431.458333 600,300 C600,168.541667 600,95.4621875 552.268958,47.7310417 C504.537813,0 431.458333,0 300,0 C168.541667,0 95.4621875,0 47.7310417,47.7310417 C0,95.4621875 0,168.541667 0,300 C0,431.458333 0,504.537813 47.7310417,552.268958 C95.4621875,600 168.541667,600 300,600 C431.458333,600 504.537813,600 552.268958,552.268958 L552.268958,552.268958 Z"/><g id="ios-pulse-strong" transform="translate(80.000000, 109.000000)"><g id="Layer_1"><g id="Shape"><use fill="#000" fill-opacity="1" filter="url(#filter-4)" xlink:href="#path-3"/><use fill="url(#linearGradient-2)" fill-rule="evenodd" xlink:href="#path-3"/></g></g></g></g></g></svg>